<svg width="800" height="400" viewBox="0 0 800 400" fill="none" xmlns="http://www.w3.org/2000/svg">
<g clip-path="url(#clip0_90_214)">
<rect width="800" height="400" fill="black"/>
<path d="M201.903 314.234L196.051 279.124H93.4219L74.9666 314.234H-38.9159L139.785 6.34606H244.215L313.985 314.234H201.903ZM135.734 197.201H182.097L170.844 130.131L135.734 197.201ZM613.401 8.14657L479.263 140.935L563.887 314.234H440.552L392.388 226.459L353.227 265.17L344.675 314.234H239.345L293.36 8.14657H398.69L379.785 116.177L490.066 8.14657H613.401ZM814.324 104.024C814.324 149.487 791.368 190.449 750.856 215.656L799.92 314.234H673.434L641.925 242.213H612.216L599.613 314.234H494.283L548.298 8.14657H691.439C770.662 8.14657 814.324 41.4561 814.324 104.024ZM638.324 95.4715L628.421 150.387H666.232C688.738 150.387 705.393 135.983 705.393 118.428C705.393 104.024 694.14 95.4715 676.135 95.4715H638.324Z" fill="#5C6670" fill-opacity="0.13"/>
<rect y="373" width="800" height="6" fill="#9DFF1E"/>
<rect y="381" width="800" height="6" fill="white"/>
<rect y="389" width="800" height="6" fill="#F80000"/>
<path d="M303.184 34.502H297.626V37.764H302.624V38.786H297.626V41.978H303.184V43H296.52V33.48H303.184V34.502ZM315.236 43H313.934L310.924 39.108L307.9 43H306.612L310.182 38.268L306.71 33.48H308.068L310.924 37.4L313.766 33.48H315.124L311.652 38.268L315.236 43ZM323.091 42.146C324.827 42.146 326.087 41.138 326.479 39.598H327.627C327.179 41.74 325.429 43.182 323.091 43.182C320.347 43.182 318.135 41.054 318.135 38.24C318.135 35.426 320.347 33.312 323.091 33.312C325.429 33.312 327.179 34.74 327.627 36.882H326.479C326.087 35.328 324.827 34.348 323.091 34.348C320.935 34.348 319.255 36.014 319.255 38.24C319.255 40.466 320.935 42.146 323.091 42.146ZM338.752 33.48H339.858V43H338.752V38.8H333.166V43H332.06V33.48H333.166V37.778H338.752V33.48ZM352.264 43L351.088 40.34H346.174L344.998 43H343.808L348.106 33.48H349.156L353.454 43H352.264ZM346.608 39.346H350.64L348.624 34.782L346.608 39.346ZM364.417 33.48H365.523V43H364.599L358.509 35.496V43H357.403V33.48H358.299L364.417 41.082V33.48ZM374.786 37.974H379.504V43H378.608L378.524 41.054C377.838 42.328 376.62 43.168 374.884 43.168C372.07 43.168 369.956 40.984 369.956 38.31C369.956 35.426 372.182 33.312 374.954 33.312C377.026 33.312 378.944 34.502 379.476 36.63H378.286C377.81 35.09 376.368 34.348 374.968 34.348C372.77 34.348 371.076 36 371.076 38.31C371.076 40.382 372.658 42.132 374.884 42.132C376.83 42.132 378.062 40.774 378.328 38.996H374.786V37.974ZM391.161 34.502H385.603V37.764H390.601V38.786H385.603V41.978H391.161V43H384.497V33.48H391.161V34.502ZM405.908 40.97C407.168 40.97 408.008 40.242 408.26 39.052H410.696C410.388 41.516 408.512 43.182 405.922 43.182C403.052 43.182 400.882 41.11 400.882 38.24C400.882 35.37 403.052 33.298 405.922 33.298C408.512 33.298 410.388 34.964 410.696 37.428H408.26C408.008 36.238 407.168 35.51 405.908 35.51C404.354 35.51 403.276 36.658 403.276 38.24C403.276 39.822 404.354 40.97 405.908 40.97ZM419.209 33.298C422.079 33.298 424.249 35.468 424.249 38.24C424.249 41.012 422.079 43.182 419.209 43.182C416.339 43.182 414.169 41.012 414.169 38.24C414.169 35.468 416.339 33.298 419.209 33.298ZM419.209 40.97C420.749 40.97 421.855 39.738 421.855 38.24C421.855 36.742 420.749 35.51 419.209 35.51C417.669 35.51 416.563 36.742 416.563 38.24C416.563 39.738 417.669 40.97 419.209 40.97ZM438.216 33.48V43H435.85V38.226L433.736 41.488V41.502H432.42V41.488L430.292 38.198L430.306 43H427.94V33.48H429.704L433.078 38.562L436.452 33.48H438.216ZM445.965 33.48C448.457 33.48 449.997 34.824 449.997 36.966C449.997 39.192 448.373 40.578 445.783 40.578H444.495V43H442.129V33.48H445.965ZM445.923 38.506C446.959 38.506 447.645 37.904 447.645 36.966C447.645 36.112 446.959 35.552 445.923 35.552H444.495V38.506H445.923ZM455.595 40.886H460.299V43H453.229V33.48H455.595V40.886ZM470.854 35.538H466.024V37.274H470.252V39.29H466.024V40.942H470.854V43H463.658V33.48H470.854V35.538ZM482.107 33.48V35.594H479.069V43H476.717V35.594H473.679V33.48H482.107ZM492.615 35.538H487.785V37.274H492.013V39.29H487.785V40.942H492.615V43H485.419V33.48H492.615V35.538ZM500.026 33.48C503.022 33.48 505.164 35.426 505.164 38.212C505.164 41.04 503.022 43 500.026 43H496.204V33.48H500.026ZM500.026 40.872C501.58 40.872 502.77 39.724 502.77 38.212C502.77 36.742 501.58 35.608 500.026 35.608H498.57V40.872H500.026Z" fill="white"/>
<path d="M199.57 256H141.97V220.96C141.97 208.96 144.61 200.08 151.33 190.96C157.57 182.56 166.69 174.88 172.45 166.72C175.57 162.4 176.53 159.52 176.53 152.32V125.44C176.53 120.64 174.61 118.24 171.01 118.24C167.41 118.24 165.73 120.88 165.73 125.68V145.84H142.69V128.08C142.69 106.72 146.29 95.68 171.25 95.68C194.05 95.68 199.57 105.04 199.57 124.72V152.8C199.57 164.08 196.93 170.56 191.65 177.52C186.37 184.48 177.49 192.88 172.21 200.08C167.41 206.32 166.45 210.4 166.45 215.68V234.64H199.57V256ZM210.755 291.76V278.56C217.715 274.72 221.075 268.96 221.075 261.52V256H210.755V232.48H234.515V258.16C234.515 277.84 226.115 288.88 210.755 291.76ZM271.437 256H247.917V126.16H235.677V107.2C245.997 107.2 249.837 102.16 250.797 96.64H271.437V256ZM341.476 181.6V225.76C341.476 245.92 331.636 257.2 312.436 257.2C298.036 257.2 283.636 250.96 283.636 226.48V214.96H306.676V227.68C306.676 232.48 308.356 234.88 311.956 234.88C315.556 234.88 317.476 232.48 317.476 227.68V184.24C317.476 178.72 315.076 177.04 311.956 177.04C309.796 177.04 307.876 178 306.196 180.16H283.636L286.516 96.64H337.876V118H307.396L305.716 161.92H306.676C309.796 158.32 314.596 156.4 320.836 156.4C331.396 156.4 341.476 161.68 341.476 181.6ZM412.867 135.04V217.84C412.867 244.48 402.547 257.2 383.827 257.2C364.387 257.2 353.827 243.04 353.827 217.12V135.52C353.827 109.6 364.387 95.68 383.827 95.68C402.547 95.68 412.867 108.4 412.867 135.04ZM388.867 217.84V134.8C388.867 123.52 386.947 118 383.347 118C379.747 118 378.067 123.52 378.067 134.8V217.84C378.067 229.36 379.747 234.88 383.347 234.88C386.947 234.88 388.867 229.36 388.867 217.84ZM423.08 291.76V278.56C430.04 274.72 433.4 268.96 433.4 261.52V256H423.08V232.48H446.84V258.16C446.84 277.84 438.44 288.88 423.08 291.76ZM515.982 135.04V217.84C515.982 244.48 505.662 257.2 486.942 257.2C467.502 257.2 456.942 243.04 456.942 217.12V135.52C456.942 109.6 467.502 95.68 486.942 95.68C505.662 95.68 515.982 108.4 515.982 135.04ZM491.982 217.84V134.8C491.982 123.52 490.062 118 486.462 118C482.862 118 481.182 123.52 481.182 134.8V217.84C481.182 229.36 482.862 234.88 486.462 234.88C490.062 234.88 491.982 229.36 491.982 217.84ZM587.345 135.04V217.84C587.345 244.48 577.025 257.2 558.305 257.2C538.865 257.2 528.305 243.04 528.305 217.12V135.52C528.305 109.6 538.865 95.68 558.305 95.68C577.025 95.68 587.345 108.4 587.345 135.04ZM563.345 217.84V134.8C563.345 123.52 561.425 118 557.825 118C554.225 118 552.545 123.52 552.545 134.8V217.84C552.545 229.36 554.225 234.88 557.825 234.88C561.425 234.88 563.345 229.36 563.345 217.84ZM658.707 135.04V217.84C658.707 244.48 648.387 257.2 629.667 257.2C610.227 257.2 599.667 243.04 599.667 217.12V135.52C599.667 109.6 610.227 95.68 629.667 95.68C648.387 95.68 658.707 108.4 658.707 135.04ZM634.707 217.84V134.8C634.707 123.52 632.787 118 629.187 118C625.587 118 623.907 123.52 623.907 134.8V217.84C623.907 229.36 625.587 234.88 629.187 234.88C632.787 234.88 634.707 229.36 634.707 217.84Z" fill="white"/>
<rect x="134" y="154" width="86" height="44" rx="4" fill="#9DFF1E"/>
<rect x="134" y="154" width="86" height="44" rx="4" stroke="black" stroke-width="4"/>
<path d="M167.281 184H161.785L159.217 179.704H159.025H156.457V184H151.633V167.68H159.025C163.441 167.68 166.153 169.864 166.153 173.608C166.153 175.576 165.313 177.256 163.777 178.36L167.281 184ZM156.457 171.784V175.432H158.977C160.297 175.432 161.281 174.688 161.281 173.56C161.281 172.48 160.297 171.784 158.977 171.784H156.457ZM185.409 167.68H190.545L185.217 184.096H180.753L177.825 174.712L174.897 184.096H170.433L165.105 167.68H170.241L172.785 176.608L175.857 167.68H179.793L182.841 176.632L185.409 167.68ZM203.303 171.808H195.599V174.52H202.151V178.576H195.599V184H190.775V167.68H203.303V171.808Z" fill="black"/>
<path d="M634.185 58.4989C636.414 55.8953 640.165 55.2136 643.168 56.8664L651.412 61.4042C654.27 62.9771 657.663 63.2567 660.74 62.1718L669.614 59.0416C672.847 57.9016 676.436 59.187 678.21 62.1198L683.081 70.1708C684.769 72.9621 687.568 74.9005 690.775 75.4991L700.026 77.2256C703.395 77.8547 705.861 80.7625 705.931 84.1894L706.124 93.5975C706.19 96.859 707.645 99.937 710.123 102.059L717.27 108.179C719.874 110.409 720.556 114.16 718.903 117.163L714.365 125.407C712.792 128.265 712.514 131.658 713.598 134.734L716.728 143.609C717.868 146.841 716.583 150.431 713.65 152.205L705.599 157.075C702.807 158.764 700.869 161.563 700.27 164.77L698.544 174.021C697.915 177.39 695.007 179.855 691.58 179.925L682.172 180.118C678.91 180.185 675.832 181.64 673.71 184.117L667.59 191.265C665.36 193.869 661.609 194.551 658.606 192.898L650.362 188.36C647.504 186.787 644.111 186.508 641.035 187.593L632.16 190.723C628.928 191.863 625.339 190.578 623.564 187.645L618.694 179.593C617.005 176.802 614.206 174.864 610.999 174.265L601.749 172.538C598.38 171.909 595.914 169.002 595.844 165.575L595.652 156.166C595.585 152.905 594.13 149.827 591.652 147.705L584.504 141.585C581.9 139.355 581.219 135.604 582.872 132.601L587.409 124.357C588.982 121.499 589.262 118.106 588.177 115.03L585.047 106.155C583.907 102.923 585.192 99.3333 588.125 97.5591L596.176 92.6887C598.967 91.0002 600.906 88.2009 601.504 84.994L603.231 75.7443C603.86 72.3747 606.768 69.9088 610.195 69.8387L619.603 69.6468C622.864 69.58 625.942 68.1245 628.064 65.6468L634.185 58.4989Z" fill="#F1F3F9"/>
<path d="M634.185 58.4989C636.414 55.8953 640.165 55.2136 643.168 56.8664L651.412 61.4042C654.27 62.9771 657.663 63.2567 660.74 62.1718L669.614 59.0416C672.847 57.9016 676.436 59.187 678.21 62.1198L683.081 70.1708C684.769 72.9621 687.568 74.9005 690.775 75.4991L700.026 77.2256C703.395 77.8547 705.861 80.7625 705.931 84.1894L706.124 93.5975C706.19 96.859 707.645 99.937 710.123 102.059L717.27 108.179C719.874 110.409 720.556 114.16 718.903 117.163L714.365 125.407C712.792 128.265 712.514 131.658 713.598 134.734L716.728 143.609C717.868 146.841 716.583 150.431 713.65 152.205L705.599 157.075C702.807 158.764 700.869 161.563 700.27 164.77L698.544 174.021C697.915 177.39 695.007 179.855 691.58 179.925L682.172 180.118C678.91 180.185 675.832 181.64 673.71 184.117L667.59 191.265C665.36 193.869 661.609 194.551 658.606 192.898L650.362 188.36C647.504 186.787 644.111 186.508 641.035 187.593L632.16 190.723C628.928 191.863 625.339 190.578 623.564 187.645L618.694 179.593C617.005 176.802 614.206 174.864 610.999 174.265L601.749 172.538C598.38 171.909 595.914 169.002 595.844 165.575L595.652 156.166C595.585 152.905 594.13 149.827 591.652 147.705L584.504 141.585C581.9 139.355 581.219 135.604 582.872 132.601L587.409 124.357C588.982 121.499 589.262 118.106 588.177 115.03L585.047 106.155C583.907 102.923 585.192 99.3333 588.125 97.5591L596.176 92.6887C598.967 91.0002 600.906 88.2009 601.504 84.994L603.231 75.7443C603.86 72.3747 606.768 69.9088 610.195 69.8387L619.603 69.6468C622.864 69.58 625.942 68.1245 628.064 65.6468L634.185 58.4989Z" fill="#17191C"/>
<path d="M634.185 58.4989C636.414 55.8953 640.165 55.2136 643.168 56.8664L651.412 61.4042C654.27 62.9771 657.663 63.2567 660.74 62.1718L669.614 59.0416C672.847 57.9016 676.436 59.187 678.21 62.1198L683.081 70.1708C684.769 72.9621 687.568 74.9005 690.775 75.4991L700.026 77.2256C703.395 77.8547 705.861 80.7625 705.931 84.1894L706.124 93.5975C706.19 96.859 707.645 99.937 710.123 102.059L717.27 108.179C719.874 110.409 720.556 114.16 718.903 117.163L714.365 125.407C712.792 128.265 712.514 131.658 713.598 134.734L716.728 143.609C717.868 146.841 716.583 150.431 713.65 152.205L705.599 157.075C702.807 158.764 700.869 161.563 700.27 164.77L698.544 174.021C697.915 177.39 695.007 179.855 691.58 179.925L682.172 180.118C678.91 180.185 675.832 181.64 673.71 184.117L667.59 191.265C665.36 193.869 661.609 194.551 658.606 192.898L650.362 188.36C647.504 186.787 644.111 186.508 641.035 187.593L632.16 190.723C628.928 191.863 625.339 190.578 623.564 187.645L618.694 179.593C617.005 176.802 614.206 174.864 610.999 174.265L601.749 172.538C598.38 171.909 595.914 169.002 595.844 165.575L595.652 156.166C595.585 152.905 594.13 149.827 591.652 147.705L584.504 141.585C581.9 139.355 581.219 135.604 582.872 132.601L587.409 124.357C588.982 121.499 589.262 118.106 588.177 115.03L585.047 106.155C583.907 102.923 585.192 99.3333 588.125 97.5591L596.176 92.6887C598.967 91.0002 600.906 88.2009 601.504 84.994L603.231 75.7443C603.86 72.3747 606.768 69.9088 610.195 69.8387L619.603 69.6468C622.864 69.58 625.942 68.1245 628.064 65.6468L634.185 58.4989Z" stroke="black" stroke-width="4.21424"/>
<path d="M687.686 87.7023C682.013 82.0887 675.131 77.8473 667.567 75.303C660.003 72.7587 651.957 71.9788 644.045 73.0231C636.133 74.0674 628.565 76.9081 621.92 81.3279C615.275 85.7477 609.729 91.6293 605.707 98.5225L620.211 106.984C622.941 102.304 626.707 98.3103 631.219 95.3093C635.731 92.3082 640.87 90.3793 646.242 89.6702C651.614 88.9612 657.078 89.4907 662.214 91.2183C667.35 92.9459 672.023 95.8258 675.874 99.6375L687.686 87.7023Z" fill="url(#paint0_linear_90_214)"/>
<path d="M698.408 146.744C695.073 153.995 690.124 160.386 683.938 165.429C677.753 170.472 670.495 174.032 662.722 175.838C654.948 177.644 646.864 177.648 639.089 175.848C631.314 174.049 624.054 170.494 617.864 165.456L628.463 152.433C632.666 155.854 637.596 158.267 642.875 159.489C648.155 160.711 653.644 160.709 658.922 159.482C664.2 158.256 669.128 155.838 673.328 152.414C677.528 148.99 680.889 144.651 683.153 139.727L698.408 146.744Z" fill="url(#paint1_linear_90_214)"/>
<path d="M697.152 146.166C697.846 146.486 698.151 147.308 697.814 147.994C694.497 154.73 689.766 160.678 683.938 165.429C677.753 170.472 670.495 174.032 662.722 175.838C654.948 177.644 646.864 177.648 639.089 175.848C631.764 174.153 624.895 170.899 618.949 166.315C618.343 165.849 618.255 164.976 618.737 164.383C619.22 163.791 620.09 163.703 620.696 164.168C626.315 168.486 632.799 171.552 639.713 173.152C647.077 174.857 654.733 174.853 662.096 173.143C669.458 171.433 676.331 168.06 682.19 163.284C687.69 158.8 692.159 153.189 695.299 146.837C695.637 146.152 696.457 145.847 697.152 146.166Z" fill="#25282D"/>
<path d="M686.712 88.6858C687.25 88.1426 687.247 87.2652 686.689 86.7422C681.215 81.6038 674.694 77.7002 667.567 75.303C660.003 72.7587 651.957 71.9788 644.045 73.0231C636.133 74.0674 628.565 76.9081 621.92 81.3279C615.659 85.4921 610.374 90.9539 606.42 97.3367C606.018 97.9863 606.242 98.8346 606.902 99.2197C607.562 99.6048 608.408 99.3808 608.811 98.7318C612.552 92.7132 617.543 87.5623 623.452 83.6319C629.746 79.446 636.913 76.7555 644.407 75.7664C651.9 74.7774 659.521 75.516 666.685 77.9257C673.412 80.1883 679.568 83.8679 684.742 88.7098C685.3 89.2319 686.175 89.2289 686.712 88.6858Z" fill="#25282D"/>
<path d="M607.03 141.994C604.158 142.754 601.866 141.722 601.235 139.247L603.93 137.366C604.528 138.888 605.861 139.539 607.491 139.107C608.774 138.768 609.668 137.896 609.759 136.889C609.826 136.155 609.444 135.764 608.556 135.692L605.673 135.472C603.323 135.295 602.238 134.107 602.428 132.009C602.677 129.259 604.989 126.784 608.106 125.959C610.835 125.237 612.919 126.16 613.552 128.389L610.877 130.264C610.437 128.967 609.315 128.404 607.849 128.792C606.566 129.132 605.647 130.051 605.556 131.058C605.489 131.792 605.908 132.214 606.797 132.286L609.622 132.481C611.992 132.652 613.063 133.782 612.873 135.881C612.624 138.63 610.228 141.148 607.03 141.994ZM617.245 139.291C614.536 140.008 613.201 138.497 613.46 135.643L614.09 128.697L617.145 127.889L616.538 134.583C616.419 135.905 617.176 136.545 618.378 136.227C619.579 135.909 620.493 134.827 620.612 133.505L621.219 126.811L624.275 126.002L623.236 137.46L620.384 138.215L620.512 136.809C619.839 138.093 618.65 138.919 617.245 139.291ZM629.684 136C626.343 136.884 624.01 134.982 624.32 131.561C624.628 128.162 627.407 124.928 630.768 124.038C633.253 123.381 635.162 124.248 635.642 126.189L632.888 128.065C632.605 127.014 631.713 126.553 630.511 126.871C628.902 127.297 627.643 128.9 627.476 130.747C627.308 132.594 628.331 133.593 629.94 133.167C631.163 132.844 632.164 131.882 632.656 130.625L635.196 131.121C634.38 133.324 632.209 135.332 629.684 136ZM640.914 133.028C637.573 133.912 635.241 132.01 635.551 128.59C635.859 125.19 638.637 121.956 641.998 121.067C644.483 120.409 646.393 121.276 646.873 123.218L644.118 125.094C643.836 124.042 642.943 123.582 641.741 123.9C640.132 124.325 638.874 125.928 638.706 127.775C638.539 129.622 639.562 130.621 641.171 130.195C642.393 129.872 643.395 128.91 643.886 127.654L646.426 128.149C645.61 130.352 643.44 132.36 640.914 133.028ZM652.043 130.083C648.519 131.016 646.481 128.933 646.781 125.618C647.091 122.197 649.746 119.017 652.923 118.176C656.447 117.243 658.199 119.197 657.912 122.365C657.87 122.827 657.789 123.279 657.659 123.62L649.877 125.679C649.929 127.079 650.824 127.743 652.331 127.345C653.411 127.059 654.249 126.366 654.747 125.476L657.083 126.026C656.259 127.882 654.324 129.48 652.043 130.083ZM652.695 120.694C651.493 121.012 650.553 121.957 650.148 123.355L654.772 122.131C654.76 120.946 653.958 120.36 652.695 120.694ZM662.275 127.376C659.831 128.023 658.012 127.255 657.543 125.412L659.882 123.728C660.34 124.815 661.292 125.28 662.494 124.962C663.35 124.736 663.873 124.229 663.932 123.578C663.976 123.096 663.637 122.878 662.923 122.862L661.078 122.818C659.313 122.773 658.406 121.804 658.555 120.167C658.747 118.048 660.589 116.147 663.095 115.484C665.274 114.907 666.905 115.562 667.426 117.267L665.066 118.956C664.826 118.098 663.946 117.717 662.866 118.002C662.072 118.213 661.571 118.693 661.518 119.281C661.476 119.743 661.814 119.96 662.627 119.991L664.349 120.068C666.152 120.144 667.045 121.034 666.897 122.671C666.703 124.811 664.862 126.691 662.275 127.376ZM671.537 124.925C669.092 125.572 667.273 124.804 666.804 122.962L669.143 121.278C669.602 122.365 670.554 122.83 671.755 122.512C672.611 122.285 673.134 121.778 673.193 121.128C673.237 120.645 672.899 120.427 672.184 120.412L670.339 120.367C668.574 120.322 667.668 119.354 667.816 117.717C668.008 115.597 669.85 113.697 672.356 113.034C674.536 112.457 676.166 113.111 676.688 114.816L674.328 116.506C674.087 115.648 673.207 115.266 672.128 115.552C671.333 115.762 670.832 116.243 670.779 116.83C670.737 117.292 671.075 117.51 671.888 117.541L673.611 117.617C675.413 117.693 676.306 118.583 676.158 120.22C675.964 122.361 674.124 124.241 671.537 124.925ZM677.806 123.02L678.597 114.291L676.723 114.786L676.97 112.058L678.844 111.562L678.86 111.395C679.105 108.687 680.855 106.709 683.625 105.976C683.972 105.884 684.416 105.807 684.695 105.795L684.452 108.481C684.191 108.509 683.989 108.542 683.785 108.596C682.645 108.898 682.006 109.579 681.915 110.586L681.9 110.754L684.283 110.123L684.036 112.851L681.653 113.482L680.861 122.212L677.806 123.02ZM687.564 120.684C684.855 121.401 683.52 119.89 683.779 117.036L684.409 110.09L687.464 109.282L686.857 115.976C686.738 117.298 687.495 117.937 688.697 117.619C689.898 117.301 690.812 116.22 690.931 114.898L691.538 108.204L694.594 107.395L693.555 118.853L690.703 119.608L690.831 118.202C690.158 119.486 688.97 120.312 687.564 120.684ZM694.566 118.585L696.006 102.7L699.062 101.891L697.622 117.777L694.566 118.585Z" fill="#4B5058"/>
<g clip-path="url(#clip1_90_214)">
<path d="M701.198 135.438C701.257 135.455 701.311 135.485 701.357 135.526C701.402 135.567 701.438 135.617 701.462 135.673L702.474 138.087C702.51 138.172 702.516 138.267 702.491 138.356L702.089 139.766L702.237 139.683C702.308 139.644 702.388 139.627 702.469 139.633L704.546 139.8C704.613 139.806 704.678 139.828 704.734 139.864C704.791 139.9 704.837 139.95 704.87 140.009C704.903 140.068 704.92 140.134 704.922 140.201C704.923 140.268 704.907 140.334 704.876 140.394L703.924 142.247C703.887 142.319 703.829 142.378 703.759 142.417L702.5 143.118L702.785 144.625C702.799 144.701 702.791 144.779 702.763 144.851C702.734 144.922 702.686 144.985 702.624 145.03C702.561 145.075 702.487 145.102 702.41 145.107C702.333 145.113 702.256 145.096 702.188 145.059L699.427 143.564L699.311 145.016C699.306 145.076 699.288 145.135 699.258 145.187C699.228 145.24 699.186 145.285 699.136 145.319C699.087 145.354 699.03 145.377 698.97 145.387C698.911 145.396 698.849 145.393 698.791 145.376L698.005 145.152C697.947 145.136 697.893 145.106 697.848 145.067C697.802 145.027 697.766 144.977 697.742 144.922C697.718 144.866 697.707 144.806 697.709 144.746C697.711 144.685 697.726 144.626 697.754 144.572L698.421 143.277L695.286 143.093C695.209 143.088 695.135 143.062 695.072 143.017C695.009 142.972 694.96 142.91 694.931 142.839C694.902 142.768 694.894 142.689 694.907 142.613C694.921 142.537 694.955 142.467 695.007 142.41L696.043 141.279L695.342 140.02C695.303 139.949 695.286 139.869 695.292 139.788L695.459 137.711C695.465 137.644 695.487 137.58 695.523 137.523C695.559 137.467 695.609 137.42 695.668 137.387C695.727 137.355 695.793 137.337 695.86 137.336C695.927 137.335 695.993 137.35 696.053 137.381L697.906 138.334C697.978 138.37 698.037 138.427 698.076 138.498L698.159 138.646L698.561 137.237C698.586 137.148 698.641 137.07 698.717 137.016L700.849 135.499C700.899 135.463 700.956 135.439 701.016 135.429C701.077 135.418 701.139 135.422 701.198 135.438Z" fill="#D7DCEA"/>
</g>
<g clip-path="url(#clip2_90_214)">
<path d="M701.198 135.438C701.257 135.455 701.311 135.485 701.357 135.526C701.402 135.567 701.438 135.617 701.462 135.673L702.474 138.087C702.51 138.172 702.516 138.267 702.491 138.356L702.089 139.766L702.237 139.683C702.308 139.644 702.388 139.627 702.469 139.633L704.546 139.8C704.613 139.806 704.678 139.828 704.734 139.864C704.791 139.9 704.837 139.95 704.87 140.009C704.903 140.068 704.92 140.134 704.922 140.201C704.923 140.268 704.907 140.334 704.876 140.394L703.924 142.247C703.887 142.319 703.829 142.378 703.759 142.417L702.5 143.118L702.785 144.625C702.799 144.701 702.791 144.779 702.763 144.851C702.734 144.922 702.686 144.985 702.624 145.03C702.561 145.075 702.487 145.102 702.41 145.107C702.333 145.113 702.256 145.096 702.188 145.059L699.427 143.564L699.311 145.016C699.306 145.076 699.288 145.135 699.258 145.187C699.228 145.24 699.186 145.285 699.136 145.319C699.087 145.354 699.03 145.377 698.97 145.387C698.911 145.396 698.849 145.393 698.791 145.376L698.005 145.152C697.947 145.136 697.893 145.106 697.848 145.067C697.802 145.027 697.766 144.977 697.742 144.922C697.718 144.866 697.707 144.806 697.709 144.746C697.711 144.685 697.726 144.626 697.754 144.572L698.421 143.277L695.286 143.093C695.209 143.088 695.135 143.062 695.072 143.017C695.009 142.972 694.96 142.91 694.931 142.839C694.902 142.768 694.894 142.689 694.907 142.613C694.921 142.537 694.955 142.467 695.007 142.41L696.043 141.279L695.342 140.02C695.303 139.949 695.286 139.869 695.292 139.788L695.459 137.711C695.465 137.644 695.487 137.58 695.523 137.523C695.559 137.467 695.609 137.42 695.668 137.387C695.727 137.355 695.793 137.337 695.86 137.336C695.927 137.335 695.993 137.35 696.053 137.381L697.906 138.334C697.978 138.37 698.037 138.427 698.076 138.498L698.159 138.646L698.561 137.237C698.586 137.148 698.641 137.07 698.717 137.016L700.849 135.499C700.899 135.463 700.956 135.439 701.016 135.429C701.077 135.418 701.139 135.422 701.198 135.438Z" fill="#D7DCEA"/>
</g>
<g clip-path="url(#clip3_90_214)">
<path d="M610.429 156.508C610.384 156.551 610.35 156.602 610.328 156.66C610.306 156.717 610.298 156.778 610.303 156.839L610.523 159.447C610.531 159.539 610.57 159.626 610.633 159.694L611.642 160.757L611.473 160.752C611.392 160.75 611.313 160.772 611.244 160.815L609.481 161.925C609.424 161.961 609.377 162.01 609.343 162.069C609.31 162.127 609.292 162.193 609.29 162.26C609.288 162.327 609.303 162.394 609.333 162.454C609.363 162.514 609.408 162.566 609.463 162.604L611.165 163.806C611.231 163.852 611.309 163.878 611.39 163.88L612.83 163.919L613.275 165.386C613.298 165.459 613.341 165.525 613.399 165.576C613.458 165.626 613.529 165.659 613.606 165.67C613.682 165.682 613.76 165.671 613.831 165.64C613.901 165.609 613.962 165.559 614.005 165.495L615.76 162.891L616.535 164.124C616.568 164.175 616.611 164.219 616.662 164.251C616.713 164.284 616.771 164.305 616.831 164.312C616.891 164.32 616.952 164.314 617.009 164.295C617.067 164.276 617.119 164.244 617.163 164.203L617.756 163.64C617.8 163.599 617.834 163.548 617.856 163.491C617.878 163.435 617.887 163.375 617.882 163.314C617.878 163.254 617.86 163.195 617.83 163.143C617.801 163.09 617.76 163.045 617.71 163.01L616.519 162.17L619.212 160.556C619.279 160.516 619.332 160.458 619.367 160.39C619.402 160.321 619.417 160.243 619.41 160.167C619.402 160.09 619.373 160.017 619.326 159.955C619.279 159.894 619.216 159.848 619.143 159.821L617.701 159.299L617.74 157.858C617.742 157.778 617.72 157.698 617.677 157.63L616.567 155.866C616.531 155.809 616.482 155.762 616.424 155.729C616.365 155.696 616.299 155.677 616.232 155.675C616.165 155.674 616.098 155.688 616.038 155.719C615.978 155.749 615.927 155.793 615.888 155.848L614.686 157.551C614.64 157.616 614.614 157.694 614.612 157.775L614.607 157.945L613.599 156.881C613.535 156.814 613.45 156.771 613.358 156.758L610.766 156.401C610.705 156.392 610.643 156.397 610.585 156.416C610.527 156.435 610.473 156.466 610.429 156.508Z" fill="#2E3238"/>
</g>
<g clip-path="url(#clip4_90_214)">
<path d="M701.197 135.44C701.256 135.457 701.31 135.487 701.356 135.528C701.402 135.569 701.438 135.619 701.461 135.675L702.474 138.089C702.51 138.174 702.516 138.269 702.49 138.358L702.089 139.768L702.236 139.685C702.307 139.646 702.388 139.629 702.468 139.635L704.545 139.802C704.612 139.808 704.677 139.83 704.733 139.866C704.79 139.902 704.837 139.952 704.869 140.011C704.902 140.07 704.92 140.136 704.921 140.203C704.922 140.27 704.906 140.336 704.876 140.396L703.923 142.249C703.886 142.321 703.829 142.38 703.758 142.419L702.499 143.12L702.784 144.627C702.798 144.703 702.791 144.781 702.762 144.853C702.734 144.924 702.685 144.987 702.623 145.032C702.561 145.078 702.487 145.104 702.41 145.11C702.333 145.115 702.256 145.098 702.188 145.061L699.427 143.566L699.31 145.018C699.306 145.078 699.287 145.137 699.257 145.189C699.227 145.242 699.185 145.287 699.136 145.321C699.086 145.356 699.029 145.379 698.97 145.389C698.91 145.398 698.849 145.395 698.791 145.378L698.004 145.154C697.946 145.138 697.893 145.108 697.847 145.069C697.802 145.029 697.766 144.979 697.742 144.924C697.718 144.868 697.706 144.808 697.708 144.748C697.71 144.687 697.726 144.628 697.753 144.574L698.42 143.279L695.285 143.095C695.208 143.09 695.134 143.064 695.071 143.019C695.008 142.974 694.96 142.912 694.93 142.841C694.901 142.77 694.893 142.691 694.906 142.615C694.92 142.539 694.955 142.469 695.006 142.412L696.043 141.281L695.341 140.022C695.302 139.951 695.285 139.871 695.292 139.79L695.459 137.713C695.464 137.646 695.486 137.582 695.522 137.525C695.559 137.469 695.608 137.422 695.667 137.389C695.726 137.357 695.792 137.339 695.859 137.338C695.926 137.337 695.993 137.352 696.053 137.383L697.906 138.336C697.977 138.372 698.036 138.429 698.076 138.5L698.158 138.648L698.56 137.239C698.585 137.15 698.641 137.072 698.716 137.018L700.848 135.501C700.898 135.465 700.955 135.441 701.016 135.431C701.076 135.42 701.138 135.424 701.197 135.44Z" fill="#2E3238"/>
</g>
<g clip-path="url(#clip5_90_214)">
<path d="M601.762 108.823C601.705 108.799 601.655 108.762 601.615 108.716C601.574 108.67 601.545 108.616 601.528 108.557L600.817 106.039C600.791 105.949 600.797 105.854 600.833 105.769L601.403 104.419L601.246 104.483C601.171 104.513 601.089 104.52 601.01 104.504L598.969 104.086C598.903 104.072 598.842 104.043 598.79 104C598.738 103.957 598.698 103.902 598.673 103.839C598.647 103.777 598.638 103.709 598.645 103.643C598.652 103.576 598.675 103.512 598.713 103.456L599.884 101.732C599.93 101.666 599.994 101.614 600.068 101.584L601.403 101.041L601.304 99.5113C601.299 99.4343 601.316 99.3574 601.353 99.2897C601.39 99.222 601.445 99.1661 601.513 99.1286C601.58 99.0911 601.657 99.0734 601.734 99.0777C601.811 99.0819 601.885 99.1079 601.948 99.1526L604.507 100.973L604.799 99.5452C604.811 99.4859 604.836 99.4301 604.873 99.3817C604.909 99.3333 604.956 99.2937 605.009 99.2655C605.063 99.2374 605.122 99.2214 605.182 99.2189C605.243 99.2164 605.303 99.2274 605.359 99.251L606.112 99.5689C606.168 99.5924 606.217 99.628 606.258 99.6731C606.298 99.7182 606.328 99.7716 606.345 99.8296C606.362 99.8875 606.366 99.9486 606.357 100.008C606.347 100.068 606.325 100.125 606.291 100.175L605.472 101.38L608.56 101.944C608.636 101.958 608.707 101.993 608.764 102.045C608.821 102.097 608.862 102.164 608.882 102.239C608.902 102.313 608.901 102.392 608.878 102.466C608.856 102.539 608.813 102.605 608.754 102.656L607.588 103.652L608.131 104.987C608.161 105.062 608.169 105.144 608.152 105.223L607.734 107.264C607.72 107.33 607.691 107.392 607.648 107.443C607.605 107.495 607.55 107.535 607.488 107.561C607.425 107.586 607.358 107.595 607.291 107.588C607.224 107.581 607.16 107.558 607.104 107.52L605.381 106.349C605.314 106.304 605.262 106.24 605.232 106.165L605.168 106.008L604.598 107.358C604.562 107.444 604.498 107.514 604.416 107.558L602.115 108.805C602.062 108.834 602.002 108.851 601.941 108.854C601.879 108.857 601.818 108.846 601.762 108.823Z" fill="#2E3238"/>
</g>
<g clip-path="url(#clip6_90_214)">
<path d="M694.141 96.6108C694.19 96.5743 694.23 96.5272 694.259 96.473C694.287 96.4188 694.303 96.3589 694.305 96.2977L694.404 93.6827C694.408 93.5901 694.38 93.4989 694.325 93.4243L693.453 92.2462L693.62 92.2718C693.7 92.2835 693.782 92.2713 693.855 92.2367L695.74 91.3498C695.801 91.3211 695.854 91.2779 695.894 91.2239C695.934 91.17 695.96 91.107 695.97 91.0405C695.98 90.974 695.973 90.9061 695.951 90.8428C695.928 90.7795 695.89 90.7227 695.841 90.6775L694.297 89.2781C694.237 89.224 694.162 89.1889 694.083 89.1771L692.658 88.9636L692.394 87.4533C692.381 87.3773 692.346 87.3067 692.294 87.2496C692.242 87.1925 692.175 87.1512 692.101 87.1306C692.027 87.11 691.948 87.1109 691.874 87.1332C691.8 87.1555 691.734 87.1982 691.683 87.2565L689.625 89.6277L689.005 88.309C688.979 88.2543 688.942 88.2059 688.895 88.1675C688.848 88.129 688.794 88.1014 688.735 88.0867C688.676 88.0719 688.615 88.0704 688.556 88.0821C688.496 88.0939 688.44 88.1188 688.392 88.1548L687.735 88.641C687.686 88.677 687.646 88.7233 687.618 88.7766C687.589 88.8299 687.573 88.8888 687.57 88.9492C687.567 89.0096 687.577 89.0698 687.6 89.1257C687.624 89.1815 687.659 89.2315 687.704 89.2721L688.783 90.2505L685.914 91.5257C685.843 91.557 685.783 91.6076 685.74 91.6716C685.697 91.7357 685.673 91.8107 685.671 91.8878C685.669 91.9649 685.689 92.0411 685.728 92.1075C685.767 92.1739 685.825 92.2278 685.893 92.263L687.261 92.9571L687.047 94.382C687.036 94.4619 687.048 94.5434 687.083 94.6164L687.969 96.502C687.998 96.5628 688.041 96.6156 688.095 96.6557C688.149 96.6958 688.212 96.722 688.279 96.7319C688.345 96.7419 688.413 96.7353 688.476 96.7127C688.54 96.6901 688.596 96.6523 688.642 96.6025L690.041 95.0585C690.095 94.9989 690.131 94.9247 690.143 94.8452L690.168 94.6771L691.039 95.8552C691.095 95.9296 691.174 95.9831 691.263 96.0067L693.793 96.6769C693.852 96.6927 693.914 96.6949 693.974 96.6835C694.034 96.672 694.091 96.6472 694.141 96.6108Z" fill="#2E3238"/>
</g>
<path d="M147.828 313.716H143.064V316.512H147.348V317.388H143.064V320.124H147.828V321H142.116V312.84H147.828V313.716ZM156.959 321H155.843L153.263 317.664L150.671 321H149.567L152.627 316.944L149.651 312.84H150.815L153.263 316.2L155.699 312.84H156.863L153.887 316.944L156.959 321ZM162.491 320.268C163.979 320.268 165.059 319.404 165.395 318.084H166.379C165.995 319.92 164.495 321.156 162.491 321.156C160.139 321.156 158.243 319.332 158.243 316.92C158.243 314.508 160.139 312.696 162.491 312.696C164.495 312.696 165.995 313.92 166.379 315.756H165.395C165.059 314.424 163.979 313.584 162.491 313.584C160.643 313.584 159.203 315.012 159.203 316.92C159.203 318.828 160.643 320.268 162.491 320.268ZM174.715 312.84H175.663V321H174.715V317.4H169.927V321H168.979V312.84H169.927V316.524H174.715V312.84ZM185.097 321L184.089 318.72H179.877L178.869 321H177.849L181.533 312.84H182.433L186.117 321H185.097ZM180.249 317.868H183.705L181.977 313.956L180.249 317.868ZM194.314 312.84H195.262V321H194.47L189.25 314.568V321H188.302V312.84H189.07L194.314 319.356V312.84ZM202.001 316.692H206.045V321H205.277L205.205 319.332C204.617 320.424 203.573 321.144 202.085 321.144C199.673 321.144 197.861 319.272 197.861 316.98C197.861 314.508 199.769 312.696 202.145 312.696C203.921 312.696 205.565 313.716 206.021 315.54H205.001C204.593 314.22 203.357 313.584 202.157 313.584C200.273 313.584 198.821 315 198.821 316.98C198.821 318.756 200.177 320.256 202.085 320.256C203.753 320.256 204.809 319.092 205.037 317.568H202.001V316.692ZM214.837 313.716H210.073V316.512H214.357V317.388H210.073V320.124H214.837V321H209.125V312.84H214.837V313.716ZM220.271 312.84C222.791 312.84 224.579 314.508 224.579 316.86C224.579 319.284 222.791 321 220.271 321H217.403V312.84H220.271ZM220.271 320.124C222.215 320.124 223.607 318.768 223.607 316.86C223.607 315.036 222.215 313.716 220.271 313.716H218.351V320.124H220.271ZM145.416 333.356H147.312V335H141.42V333.356H143.46V329.012L141.54 329.6V327.764L144.204 326.84H145.416V333.356ZM148.817 336.248L149.441 334.916C149.021 334.736 148.817 334.424 148.817 334.052C148.817 333.476 149.297 333.02 149.897 333.02C150.497 333.02 150.977 333.476 150.977 334.052C150.977 334.316 150.965 334.46 150.617 335.048L149.897 336.248H148.817ZM155.771 326.684C158.123 326.684 159.551 328.448 159.551 330.92C159.551 333.392 158.123 335.156 155.771 335.156C153.419 335.156 151.991 333.392 151.991 330.92C151.991 328.448 153.419 326.684 155.771 326.684ZM155.771 333.392C156.983 333.392 157.631 332.336 157.631 330.92C157.631 329.504 156.983 328.448 155.771 328.448C154.559 328.448 153.911 329.504 153.911 330.92C153.911 332.336 154.559 333.392 155.771 333.392ZM165.105 326.684C167.457 326.684 168.885 328.448 168.885 330.92C168.885 333.392 167.457 335.156 165.105 335.156C162.753 335.156 161.325 333.392 161.325 330.92C161.325 328.448 162.753 326.684 165.105 326.684ZM165.105 333.392C166.317 333.392 166.965 332.336 166.965 330.92C166.965 329.504 166.317 328.448 165.105 328.448C163.893 328.448 163.245 329.504 163.245 330.92C163.245 332.336 163.893 333.392 165.105 333.392ZM174.438 326.684C176.79 326.684 178.218 328.448 178.218 330.92C178.218 333.392 176.79 335.156 174.438 335.156C172.086 335.156 170.658 333.392 170.658 330.92C170.658 328.448 172.086 326.684 174.438 326.684ZM174.438 333.392C175.65 333.392 176.298 332.336 176.298 330.92C176.298 329.504 175.65 328.448 174.438 328.448C173.226 328.448 172.578 329.504 172.578 330.92C172.578 332.336 173.226 333.392 174.438 333.392ZM179.225 336.248L179.849 334.916C179.429 334.736 179.225 334.424 179.225 334.052C179.225 333.476 179.705 333.02 180.305 333.02C180.905 333.02 181.385 333.476 181.385 334.052C181.385 334.316 181.373 334.46 181.025 335.048L180.305 336.248H179.225ZM186.179 326.684C188.531 326.684 189.959 328.448 189.959 330.92C189.959 333.392 188.531 335.156 186.179 335.156C183.827 335.156 182.399 333.392 182.399 330.92C182.399 328.448 183.827 326.684 186.179 326.684ZM186.179 333.392C187.391 333.392 188.039 332.336 188.039 330.92C188.039 329.504 187.391 328.448 186.179 328.448C184.967 328.448 184.319 329.504 184.319 330.92C184.319 332.336 184.967 333.392 186.179 333.392ZM195.512 326.684C197.864 326.684 199.292 328.448 199.292 330.92C199.292 333.392 197.864 335.156 195.512 335.156C193.16 335.156 191.732 333.392 191.732 330.92C191.732 328.448 193.16 326.684 195.512 326.684ZM195.512 333.392C196.724 333.392 197.372 332.336 197.372 330.92C197.372 329.504 196.724 328.448 195.512 328.448C194.3 328.448 193.652 329.504 193.652 330.92C193.652 332.336 194.3 333.392 195.512 333.392ZM204.845 326.684C207.197 326.684 208.625 328.448 208.625 330.92C208.625 333.392 207.197 335.156 204.845 335.156C202.493 335.156 201.065 333.392 201.065 330.92C201.065 328.448 202.493 326.684 204.845 326.684ZM204.845 333.392C206.057 333.392 206.705 332.336 206.705 330.92C206.705 329.504 206.057 328.448 204.845 328.448C203.633 328.448 202.985 329.504 202.985 330.92C202.985 332.336 203.633 333.392 204.845 333.392ZM219.877 326.84H221.893V335H220.333L216.421 330.524V335H214.393V326.84H215.941L219.877 331.436V326.84ZM228.014 330.416H232.382V335H230.87L230.786 334.004C230.198 334.724 229.346 335.156 228.206 335.156C225.65 335.156 223.862 333.344 223.862 331.004C223.862 328.46 225.734 326.684 228.218 326.684C230.222 326.684 231.95 327.8 232.298 329.744H230.162C229.814 328.796 228.998 328.52 228.266 328.52C226.862 328.52 225.914 329.516 225.914 330.956C225.914 332.24 226.838 333.308 228.278 333.308C229.226 333.308 229.946 332.828 230.354 332.036L228.014 332.012V330.416ZM240.172 326.84H242.188V335H240.628L236.716 330.524V335H234.688V326.84H236.236L240.172 331.436V326.84ZM147.72 341.716H143.064V344.716H147.216V345.592H143.064V349H142.116V340.84H147.72V341.716ZM153.65 340.696C156.002 340.696 157.898 342.568 157.898 344.92C157.898 347.272 156.002 349.144 153.65 349.144C151.298 349.144 149.402 347.272 149.402 344.92C149.402 342.568 151.298 340.696 153.65 340.696ZM153.65 348.256C155.498 348.256 156.938 346.768 156.938 344.92C156.938 343.072 155.498 341.584 153.65 341.584C151.802 341.584 150.362 343.072 150.362 344.92C150.362 346.768 151.802 348.256 153.65 348.256ZM165.901 349L163.525 346.084H161.449V349H160.501V340.84H163.585C165.421 340.84 166.705 341.848 166.705 343.456C166.705 344.752 165.877 345.664 164.605 345.964L167.077 349H165.901ZM161.449 341.716V345.208H163.561C164.833 345.208 165.769 344.548 165.769 343.456C165.769 342.364 164.833 341.716 163.561 341.716H161.449ZM176.585 347.356H178.481V349H172.589V347.356H174.629V343.012L172.709 343.6V341.764L175.373 340.84H176.585V347.356ZM179.986 350.248L180.61 348.916C180.19 348.736 179.986 348.424 179.986 348.052C179.986 347.476 180.466 347.02 181.066 347.02C181.666 347.02 182.146 347.476 182.146 348.052C182.146 348.316 182.134 348.46 181.786 349.048L181.066 350.248H179.986ZM187.611 347.356H189.507V349H183.615V347.356H185.655V343.012L183.735 343.6V341.764L186.399 340.84H187.611V347.356ZM194.166 343.696C196.002 343.696 197.082 344.848 197.082 346.348C197.082 348.028 195.822 349.156 193.986 349.156C192.186 349.156 190.986 348.124 190.806 346.576H192.714C192.87 347.14 193.302 347.488 194.022 347.488C194.73 347.488 195.234 347.044 195.234 346.36C195.234 345.7 194.706 345.268 193.878 345.268H191.226V340.84H196.698V342.568H193.05L193.038 343.696H194.166ZM202.654 340.684C205.006 340.684 206.434 342.448 206.434 344.92C206.434 347.392 205.006 349.156 202.654 349.156C200.302 349.156 198.874 347.392 198.874 344.92C198.874 342.448 200.302 340.684 202.654 340.684ZM202.654 347.392C203.866 347.392 204.514 346.336 204.514 344.92C204.514 343.504 203.866 342.448 202.654 342.448C201.442 342.448 200.794 343.504 200.794 344.92C200.794 346.336 201.442 347.392 202.654 347.392ZM207.441 350.248L208.065 348.916C207.645 348.736 207.441 348.424 207.441 348.052C207.441 347.476 207.921 347.02 208.521 347.02C209.121 347.02 209.601 347.476 209.601 348.052C209.601 348.316 209.589 348.46 209.241 349.048L208.521 350.248H207.441ZM214.395 340.684C216.747 340.684 218.175 342.448 218.175 344.92C218.175 347.392 216.747 349.156 214.395 349.156C212.043 349.156 210.615 347.392 210.615 344.92C210.615 342.448 212.043 340.684 214.395 340.684ZM214.395 347.392C215.607 347.392 216.255 346.336 216.255 344.92C216.255 343.504 215.607 342.448 214.395 342.448C213.183 342.448 212.535 343.504 212.535 344.92C212.535 346.336 213.183 347.392 214.395 347.392ZM223.728 340.684C226.08 340.684 227.508 342.448 227.508 344.92C227.508 347.392 226.08 349.156 223.728 349.156C221.376 349.156 219.948 347.392 219.948 344.92C219.948 342.448 221.376 340.684 223.728 340.684ZM223.728 347.392C224.94 347.392 225.588 346.336 225.588 344.92C225.588 343.504 224.94 342.448 223.728 342.448C222.516 342.448 221.868 343.504 221.868 344.92C221.868 346.336 222.516 347.392 223.728 347.392ZM233.061 340.684C235.413 340.684 236.841 342.448 236.841 344.92C236.841 347.392 235.413 349.156 233.061 349.156C230.709 349.156 229.281 347.392 229.281 344.92C229.281 342.448 230.709 340.684 233.061 340.684ZM233.061 347.392C234.273 347.392 234.921 346.336 234.921 344.92C234.921 343.504 234.273 342.448 233.061 342.448C231.849 342.448 231.201 343.504 231.201 344.92C231.201 346.336 231.849 347.392 233.061 347.392ZM250.097 349H247.733L246.185 346.636H246.173H244.637V349H242.609V340.84H246.173C248.201 340.84 249.557 341.944 249.557 343.708C249.557 344.776 249.041 345.64 248.177 346.144L250.097 349ZM244.637 342.628V344.812H246.137C246.917 344.812 247.529 344.38 247.529 343.708C247.529 343.048 246.917 342.628 246.137 342.628H244.637ZM260.795 340.84H262.943L260.267 349.048H258.347L256.703 344.044L255.059 349.048H253.139L250.463 340.84H252.611L254.135 345.904L255.863 340.84H257.543L259.271 345.904L260.795 340.84ZM270.594 342.628H266.526V344.356H270.03V346.12H266.526V349H264.498V340.84H270.594V342.628Z" fill="white"/>
<path d="M299.308 312.696C301.54 312.696 302.848 314.424 302.848 316.92C302.848 319.416 301.54 321.144 299.308 321.144C297.076 321.144 295.768 319.416 295.768 316.92C295.768 314.424 297.076 312.696 299.308 312.696ZM299.308 320.28C300.976 320.28 301.888 318.9 301.888 316.92C301.888 314.94 300.976 313.548 299.308 313.548C297.64 313.548 296.728 314.94 296.728 316.92C296.728 318.9 297.64 320.28 299.308 320.28ZM311.157 318.408V319.224H309.873V321H308.961V319.224H304.593V318.636L307.065 312.84H308.025L305.709 318.408H308.961V315.792H309.873V318.408H311.157ZM317.459 316.536C317.123 316.536 316.847 316.272 316.847 315.924C316.847 315.588 317.123 315.336 317.459 315.336C317.807 315.336 318.083 315.588 318.083 315.924C318.083 316.272 317.807 316.536 317.459 316.536ZM317.459 321.096C317.123 321.096 316.847 320.832 316.847 320.484C316.847 320.148 317.123 319.896 317.459 319.896C317.807 319.896 318.083 320.148 318.083 320.484C318.083 320.832 317.807 321.096 317.459 321.096ZM327.049 320.208H329.173V321H323.809V320.208H326.113V313.908L323.941 314.688V313.8L326.521 312.84H327.049V320.208ZM333.779 315.528C335.531 315.528 336.803 316.692 336.803 318.324C336.803 319.98 335.531 321.144 333.767 321.144C332.003 321.144 330.743 319.968 330.743 318.348C330.743 317.652 330.995 317.076 331.403 316.44L333.935 312.84H335.051L333.143 315.588C333.347 315.552 333.551 315.528 333.779 315.528ZM333.767 320.364C334.991 320.364 335.867 319.536 335.867 318.372C335.867 317.22 334.991 316.368 333.767 316.368C333.143 316.368 332.603 316.56 332.231 316.92L332.183 316.98C331.823 317.448 331.667 317.868 331.667 318.384C331.667 319.536 332.555 320.364 333.767 320.364ZM349.014 321L348.462 319.596H345.006L344.466 321H342.306L345.774 312.84H347.718L351.174 321H349.014ZM345.666 317.904H347.802L346.734 315.156L345.666 317.904ZM361.563 312.84V321H359.535V316.908L357.723 319.704V319.716H356.595V319.704L354.771 316.884L354.783 321H352.755V312.84H354.267L357.159 317.196L360.051 312.84H361.563ZM368.331 318.18V317.34H372.315V318.18H368.331ZM384.887 312.84V313.716H381.875V321H380.927V313.716H377.927V312.84H384.887ZM393.744 312.84V317.508C393.744 319.68 392.352 321.144 390.252 321.144C388.152 321.144 386.76 319.68 386.76 317.508V312.84H387.708V317.508C387.708 319.104 388.716 320.256 390.252 320.256C391.776 320.256 392.796 319.104 392.796 317.508V312.84H393.744ZM402.288 313.716H397.524V316.512H401.808V317.388H397.524V320.124H402.288V321H396.576V312.84H402.288V313.716ZM407.476 312.696C409.084 312.696 410.476 313.404 410.68 315.084H409.732C409.552 314.112 408.868 313.512 407.536 313.512C406.336 313.512 405.556 314.052 405.556 314.976C405.556 315.696 406.072 316.104 407.044 316.296L408.376 316.548C409.84 316.836 410.668 317.496 410.668 318.696C410.668 320.184 409.444 321.144 407.608 321.144C405.652 321.144 404.38 320.148 404.2 318.384H405.136C405.328 319.608 406.204 320.292 407.656 320.292C408.904 320.292 409.696 319.728 409.696 318.804C409.696 318.156 409.252 317.652 408.22 317.472L406.696 317.172C405.244 316.896 404.548 316.152 404.548 315.036C404.548 313.608 405.724 312.696 407.476 312.696ZM416.095 312.84C418.615 312.84 420.403 314.508 420.403 316.86C420.403 319.284 418.615 321 416.095 321H413.227V312.84H416.095ZM416.095 320.124C418.039 320.124 419.431 318.768 419.431 316.86C419.431 315.036 418.039 313.716 416.095 313.716H414.175V320.124H416.095ZM428.947 321L427.939 318.72H423.727L422.719 321H421.699L425.383 312.84H426.283L429.967 321H428.947ZM424.099 317.868H427.555L425.827 313.956L424.099 317.868ZM436.445 312.84H437.501L434.153 318.108V321H433.193V318.108L429.833 312.84H430.889L433.673 317.208L436.445 312.84Z" fill="white"/>
<path d="M299.308 340.696C301.54 340.696 302.848 342.424 302.848 344.92C302.848 347.416 301.54 349.144 299.308 349.144C297.076 349.144 295.768 347.416 295.768 344.92C295.768 342.424 297.076 340.696 299.308 340.696ZM299.308 348.28C300.976 348.28 301.888 346.9 301.888 344.92C301.888 342.94 300.976 341.548 299.308 341.548C297.64 341.548 296.728 342.94 296.728 344.92C296.728 346.9 297.64 348.28 299.308 348.28ZM306.306 348.208H310.254V349H304.878V348.496L307.518 345.676C308.538 344.608 309.162 343.948 309.162 343.084C309.162 342.22 308.538 341.512 307.41 341.512C306.39 341.512 305.682 342.112 305.562 343.084H304.626C304.698 341.632 305.814 340.696 307.434 340.696C309.138 340.696 310.11 341.74 310.11 343.096C310.11 344.08 309.51 344.824 308.286 346.084L306.306 348.208ZM316.903 346.18V345.34H320.887V346.18H316.903ZM331.244 340.684C333.596 340.684 335.024 342.448 335.024 344.92C335.024 347.392 333.596 349.156 331.244 349.156C328.892 349.156 327.464 347.392 327.464 344.92C327.464 342.448 328.892 340.684 331.244 340.684ZM331.244 347.392C332.456 347.392 333.104 346.336 333.104 344.92C333.104 343.504 332.456 342.448 331.244 342.448C330.032 342.448 329.384 343.504 329.384 344.92C329.384 346.336 330.032 347.392 331.244 347.392ZM340.217 343.276C342.029 343.372 343.253 344.596 343.253 346.156C343.253 347.86 341.909 349.156 339.953 349.156C337.985 349.156 336.665 347.836 336.665 346.192C336.665 345.52 336.941 344.896 337.361 344.212L339.485 340.84H341.777L340.217 343.276ZM339.953 347.536C340.781 347.536 341.345 346.912 341.345 346.228C341.345 345.544 340.793 344.908 339.953 344.908C339.593 344.908 339.245 345.004 338.993 345.184L338.945 345.268C338.657 345.676 338.549 345.94 338.549 346.24C338.549 346.912 339.125 347.536 339.953 347.536ZM357.714 340.84V349H355.686V344.908L353.874 347.704V347.716H352.746V347.704L350.922 344.884L350.934 349H348.906V340.84H350.418L353.31 345.196L356.202 340.84H357.714ZM366 349L365.448 347.596H361.992L361.452 349H359.292L362.76 340.84H364.704L368.16 349H366ZM362.652 345.904H364.788L363.72 343.156L362.652 345.904ZM373.739 340.84H375.983L372.767 346.54V349H370.727V346.54L367.499 340.84H369.743L371.735 344.392L373.739 340.84ZM382.106 346.18V345.34H386.09V346.18H382.106ZM394.299 348.208H398.247V349H392.871V348.496L395.511 345.676C396.531 344.608 397.155 343.948 397.155 343.084C397.155 342.22 396.531 341.512 395.403 341.512C394.383 341.512 393.675 342.112 393.555 343.084H392.619C392.691 341.632 393.807 340.696 395.427 340.696C397.131 340.696 398.103 341.74 398.103 343.096C398.103 344.08 397.503 344.824 396.279 346.084L394.299 348.208ZM403.694 340.696C405.926 340.696 407.234 342.424 407.234 344.92C407.234 347.416 405.926 349.144 403.694 349.144C401.462 349.144 400.154 347.416 400.154 344.92C400.154 342.424 401.462 340.696 403.694 340.696ZM403.694 348.28C405.362 348.28 406.274 346.9 406.274 344.92C406.274 342.94 405.362 341.548 403.694 341.548C402.026 341.548 401.114 342.94 401.114 344.92C401.114 346.9 402.026 348.28 403.694 348.28ZM410.692 348.208H414.64V349H409.264V348.496L411.904 345.676C412.924 344.608 413.548 343.948 413.548 343.084C413.548 342.22 412.924 341.512 411.796 341.512C410.776 341.512 410.068 342.112 409.948 343.084H409.012C409.084 341.632 410.2 340.696 411.82 340.696C413.524 340.696 414.496 341.74 414.496 343.096C414.496 344.08 413.896 344.824 412.672 346.084L410.692 348.208ZM419.382 343.528C421.134 343.528 422.406 344.692 422.406 346.324C422.406 347.98 421.134 349.144 419.37 349.144C417.606 349.144 416.346 347.968 416.346 346.348C416.346 345.652 416.598 345.076 417.006 344.44L419.538 340.84H420.654L418.746 343.588C418.95 343.552 419.154 343.528 419.382 343.528ZM419.37 348.364C420.594 348.364 421.47 347.536 421.47 346.372C421.47 345.22 420.594 344.368 419.37 344.368C418.746 344.368 418.206 344.56 417.834 344.92L417.786 344.98C417.426 345.448 417.27 345.868 417.27 346.384C417.27 347.536 418.158 348.364 419.37 348.364Z" fill="white"/>
<path d="M471.43 319L469.45 316.57H467.72V319H466.93V312.2H469.5C471.03 312.2 472.1 313.04 472.1 314.38C472.1 315.46 471.41 316.22 470.35 316.47L472.41 319H471.43ZM467.72 312.93V315.84H469.48C470.54 315.84 471.32 315.29 471.32 314.38C471.32 313.47 470.54 312.93 469.48 312.93H467.72ZM478.95 312.93H474.98V315.26H478.55V315.99H474.98V318.27H478.95V319H474.19V312.2H478.95V312.93ZM486.489 319L485.649 317.1H482.139L481.299 319H480.449L483.519 312.2H484.269L487.339 319H486.489ZM482.449 316.39H485.329L483.889 313.13L482.449 316.39ZM491.55 312.2C493.65 312.2 495.14 313.59 495.14 315.55C495.14 317.57 493.65 319 491.55 319H489.16V312.2H491.55ZM491.55 318.27C493.17 318.27 494.33 317.14 494.33 315.55C494.33 314.03 493.17 312.93 491.55 312.93H489.95V318.27H491.55ZM501.492 312.2H502.372L499.582 316.59V319H498.782V316.59L495.982 312.2H496.862L499.182 315.84L501.492 312.2ZM511.852 312.2V312.93H509.342V319H508.552V312.93H506.052V312.2H511.852ZM516.314 312.08C518.274 312.08 519.854 313.64 519.854 315.6C519.854 317.56 518.274 319.12 516.314 319.12C514.354 319.12 512.774 317.56 512.774 315.6C512.774 313.64 514.354 312.08 516.314 312.08ZM516.314 318.38C517.854 318.38 519.054 317.14 519.054 315.6C519.054 314.06 517.854 312.82 516.314 312.82C514.774 312.82 513.574 314.06 513.574 315.6C513.574 317.14 514.774 318.38 516.314 318.38ZM527.698 312.08C529.038 312.08 530.198 312.67 530.368 314.07H529.578C529.428 313.26 528.858 312.76 527.748 312.76C526.748 312.76 526.098 313.21 526.098 313.98C526.098 314.58 526.528 314.92 527.338 315.08L528.448 315.29C529.668 315.53 530.358 316.08 530.358 317.08C530.358 318.32 529.338 319.12 527.808 319.12C526.178 319.12 525.118 318.29 524.968 316.82H525.748C525.908 317.84 526.638 318.41 527.848 318.41C528.888 318.41 529.548 317.94 529.548 317.17C529.548 316.63 529.178 316.21 528.318 316.06L527.048 315.81C525.838 315.58 525.258 314.96 525.258 314.03C525.258 312.84 526.238 312.08 527.698 312.08ZM540.655 312.2H541.485L539.165 319.05H538.395L536.545 313.61L534.695 319.05H533.925L531.605 312.2H532.435L534.305 317.84L536.205 312.2H536.885L538.775 317.83L540.655 312.2ZM547.612 319L546.772 317.1H543.262L542.422 319H541.572L544.642 312.2H545.392L548.462 319H547.612ZM543.572 316.39H546.452L545.012 313.13L543.572 316.39ZM552.682 312.2C554.252 312.2 555.302 313.1 555.302 314.46C555.302 315.87 554.212 316.8 552.582 316.8H551.072V319H550.282V312.2H552.682ZM552.652 316.07C553.772 316.07 554.522 315.43 554.522 314.46C554.522 313.54 553.772 312.92 552.652 312.92H551.072V316.07H552.652ZM559.041 317.08H558.431L558.361 315.61H558.841C559.731 315.61 560.381 315 560.381 314.18C560.381 313.37 559.781 312.76 558.911 312.76C558.221 312.76 557.631 313.18 557.511 313.84H556.741C556.881 312.77 557.711 312.08 558.881 312.08C560.171 312.08 561.131 312.96 561.131 314.17C561.131 315.29 560.311 316.09 559.061 316.16L559.041 317.08ZM558.721 319.07C558.441 319.07 558.211 318.85 558.211 318.57C558.211 318.29 558.441 318.07 558.721 318.07C559.001 318.07 559.231 318.29 559.231 318.57C559.231 318.85 559.001 319.07 558.721 319.07ZM571.771 312.2H572.641L569.511 319.05H568.771L565.641 312.2H566.511L569.141 317.99L571.771 312.2ZM574.372 312.2H575.162V319H574.372V312.2ZM579.989 312.08C581.329 312.08 582.489 312.67 582.659 314.07H581.869C581.719 313.26 581.149 312.76 580.039 312.76C579.039 312.76 578.389 313.21 578.389 313.98C578.389 314.58 578.819 314.92 579.629 315.08L580.739 315.29C581.959 315.53 582.649 316.08 582.649 317.08C582.649 318.32 581.629 319.12 580.099 319.12C578.469 319.12 577.409 318.29 577.259 316.82H578.039C578.199 317.84 578.929 318.41 580.139 318.41C581.179 318.41 581.839 317.94 581.839 317.17C581.839 316.63 581.469 316.21 580.609 316.06L579.339 315.81C578.129 315.58 577.549 314.96 577.549 314.03C577.549 312.84 578.529 312.08 579.989 312.08ZM584.781 312.2H585.571V319H584.781V312.2ZM593.08 312.2V312.93H590.57V319H589.78V312.93H587.28V312.2H593.08ZM603.582 319L602.742 317.1H599.232L598.392 319H597.542L600.612 312.2H601.362L604.432 319H603.582ZM599.542 316.39H602.422L600.982 313.13L599.542 316.39ZM611.133 319L608.363 315.86L607.043 317.25V319H606.253V312.2H607.043V316.16L610.833 312.2H611.803L608.903 315.28L612.153 319H611.133ZM619.304 319L618.464 317.1H614.954L614.114 319H613.264L616.334 312.2H617.084L620.154 319H619.304ZM615.264 316.39H618.144L616.704 313.13L615.264 316.39ZM626.475 319L624.495 316.57H622.765V319H621.975V312.2H624.545C626.075 312.2 627.145 313.04 627.145 314.38C627.145 315.46 626.455 316.22 625.395 316.47L627.455 319H626.475ZM622.765 312.93V315.84H624.525C625.585 315.84 626.365 315.29 626.365 314.38C626.365 313.47 625.585 312.93 624.525 312.93H622.765ZM634.732 319L633.892 317.1H630.382L629.542 319H628.692L631.762 312.2H632.512L635.582 319H634.732ZM630.692 316.39H633.572L632.132 313.13L630.692 316.39Z" fill="white"/>
<path d="M479.75 338.04V340.812H474.668V353H471.676V340.812H466.594V338.04H479.75ZM492.501 353L489.069 348.248H485.989V353H482.997V338.04H489.311C492.677 338.04 495.163 340.064 495.163 343.144C495.163 345.234 494.019 346.84 492.237 347.654L496.131 353H492.501ZM485.989 340.812V345.476H489.201C490.851 345.476 492.215 344.574 492.215 343.144C492.215 341.714 490.851 340.812 489.201 340.812H485.989ZM508.384 338.04H511.706L505.766 348.072V353H502.73V348.072L496.768 338.04H500.09L504.226 345.102L508.384 338.04ZM523.33 353L522.098 350.008H515.212L513.98 353H510.768L517.258 338.04H520.052L526.52 353H523.33ZM516.29 347.346H520.998L518.644 341.626L516.29 347.346ZM539.851 353L535.209 346.862L532.767 349.612V353H529.775V338.04H532.767V345.542L539.477 338.04H543.063L537.211 344.618L543.679 353H539.851ZM558.175 353L556.943 350.008H550.057L548.825 353H545.613L552.103 338.04H554.897L561.365 353H558.175ZM551.135 347.346H555.843L553.489 341.626L551.135 347.346ZM574.124 353L570.692 348.248H567.612V353H564.62V338.04H570.934C574.3 338.04 576.786 340.064 576.786 343.144C576.786 345.234 575.642 346.84 573.86 347.654L577.754 353H574.124ZM567.612 340.812V345.476H570.824C572.474 345.476 573.838 344.574 573.838 343.144C573.838 341.714 572.474 340.812 570.824 340.812H567.612ZM592.462 353L591.23 350.008H584.344L583.112 353H579.9L586.39 338.04H589.184L595.652 353H592.462ZM585.422 347.346H590.13L587.776 341.626L585.422 347.346ZM599.765 353.154C598.819 353.154 598.027 352.428 598.027 351.46C598.027 350.514 598.819 349.788 599.765 349.788C600.733 349.788 601.525 350.514 601.525 351.46C601.525 352.428 600.733 353.154 599.765 353.154ZM611.357 350.47C613.557 350.47 615.053 349.216 615.603 347.016H618.683C618.001 350.822 615.163 353.264 611.357 353.264C607.045 353.264 603.569 350.052 603.569 345.52C603.569 340.988 607.045 337.776 611.357 337.776C615.163 337.776 618.001 340.218 618.683 344.024H615.603C615.053 341.824 613.557 340.57 611.357 340.57C608.629 340.57 606.605 342.572 606.605 345.52C606.605 348.468 608.629 350.47 611.357 350.47ZM630.123 337.776C634.435 337.776 637.911 341.208 637.911 345.52C637.911 349.832 634.435 353.264 630.123 353.264C625.811 353.264 622.335 349.832 622.335 345.52C622.335 341.208 625.811 337.776 630.123 337.776ZM630.123 350.47C632.851 350.47 634.875 348.248 634.875 345.52C634.875 342.792 632.851 340.57 630.123 340.57C627.395 340.57 625.371 342.792 625.371 345.52C625.371 348.248 627.395 350.47 630.123 350.47ZM657.523 338.04V353H654.531V344.64L650.637 350.8H648.833V350.778L644.895 344.552L644.939 353H641.947V338.04H644.059L649.735 347.104L655.411 338.04H657.523Z" fill="white"/>
<rect x="128.5" y="14.5" width="53.8208" height="55" rx="26.9104" stroke="#2A2828"/>
<path d="M155.383 26C155.952 26.0165 156.385 26.0854 156.91 26.3324C157.435 26.5728 157.886 26.9491 158.217 27.4224C158.443 27.7499 158.716 28.2769 158.92 28.6423C159.309 29.3463 159.702 30.0483 160.099 30.7483L164.657 38.8863C165.834 40.9548 166.996 43.0319 168.143 45.1174C168.486 45.7375 169.379 47.2377 169.59 47.8359C169.949 48.8611 169.887 49.9867 169.419 50.9666C168.467 52.9074 166.211 53.7867 164.243 52.8227C163.573 52.4943 162.864 52.1799 162.185 51.8625L158.547 50.1693C158.23 50.023 157.533 49.6486 157.174 49.6716C157.107 49.6761 156.994 49.7714 156.959 49.8277C156.594 50.419 156.24 51.0539 155.894 51.6554L153.825 55.2018C153.162 56.3434 152.739 57.3901 151.389 57.8401C150.62 58.1039 149.777 58.0393 149.057 57.661C148.372 57.3085 147.857 56.6959 147.627 55.9602C147.376 55.1387 147.462 54.3837 147.857 53.6298C149.354 51.1737 150.731 48.6105 152.218 46.1449C152.567 45.5667 152.871 44.9327 153.306 44.4146C153.667 43.988 154.122 43.6517 154.635 43.4317C156.649 42.5547 158.251 43.7677 160.054 44.5533C160.553 44.7709 161.027 45.0268 161.535 45.23C161.323 44.7653 160.968 44.1709 160.71 43.7136L159.283 41.177C158.848 40.401 155.692 34.6598 155.455 34.5455C155.131 34.6028 154.744 35.4287 154.575 35.7215L153.291 37.9428C153.032 38.3925 152.545 39.3956 152.082 39.5561C151.619 39.7162 150.682 39.6792 150.185 39.6758C148.868 39.6591 147.528 39.7086 146.214 39.6582C145.673 39.6375 145.723 39.0223 145.927 38.6795C146.417 37.8576 146.905 37.0226 147.387 36.1978C148.45 34.3684 149.524 32.545 150.608 30.7275L151.843 28.621C152.775 27.0294 153.362 26.1122 155.383 26Z" fill="white"/>
<path d="M147.598 41.5295C148.158 41.4615 150.806 41.4259 151.19 41.6171C151.298 41.6708 151.345 41.7354 151.383 41.8484C151.443 42.0305 151.405 42.1617 151.315 42.326C150.294 44.1878 149.118 46.0338 148.027 47.8593L146.994 49.5873C146.366 50.6378 146.016 51.1732 144.783 51.5402C144.633 51.5711 144.412 51.6078 144.261 51.6214C143.477 51.6875 142.698 51.4446 142.092 50.9443C141.467 50.4228 141.077 49.6735 141.008 48.8629C140.919 47.8842 141.622 45.9654 142.073 45.1174C142.322 44.6473 142.621 44.2056 142.964 43.7998C144.134 42.4288 145.821 41.6784 147.598 41.5295Z" fill="white"/>
</g>
<defs>
<linearGradient id="paint0_linear_90_214" x1="645.963" y1="97.7714" x2="641.538" y2="73.4161" gradientUnits="userSpaceOnUse">
<stop stop-color="#2E3238" stop-opacity="0"/>
<stop offset="1" stop-color="#2E3238"/>
</linearGradient>
<linearGradient id="paint1_linear_90_214" x1="655.811" y1="151.997" x2="660.236" y2="176.352" gradientUnits="userSpaceOnUse">
<stop stop-color="#2E3238" stop-opacity="0"/>
<stop offset="1" stop-color="#2E3238"/>
</linearGradient>
<clipPath id="clip0_90_214">
<rect width="800" height="400" fill="white"/>
</clipPath>
<clipPath id="clip1_90_214">
<rect width="13.0777" height="13.0777" fill="white" transform="matrix(-0.961729 -0.274003 -0.274003 0.961729 707.708 136.444)"/>
</clipPath>
<clipPath id="clip2_90_214">
<rect width="13.0777" height="13.0777" fill="white" transform="matrix(-0.961729 -0.274003 -0.274003 0.961729 707.708 136.444)"/>
</clipPath>
<clipPath id="clip3_90_214">
<rect width="13.0777" height="13.0777" fill="white" transform="translate(605.119 160.415) rotate(-43.4847)"/>
</clipPath>
<clipPath id="clip4_90_214">
<rect width="13.0777" height="13.0777" fill="white" transform="matrix(-0.961729 -0.274003 -0.274003 0.961729 707.707 136.446)"/>
</clipPath>
<clipPath id="clip5_90_214">
<rect width="13.0777" height="13.0777" fill="white" transform="matrix(0.921273 0.388916 0.388916 -0.921273 595.412 107.031)"/>
</clipPath>
<clipPath id="clip6_90_214">
<rect width="13.0777" height="13.0777" fill="white" transform="translate(699.876 93.3775) rotate(143.5)"/>
</clipPath>
</defs>
</svg>
