<svg width="658" height="12" viewBox="0 0 658 12" fill="none" xmlns="http://www.w3.org/2000/svg">
<path d="M1.07288e-06 0.191991H1.264V11.072H1.07288e-06V0.191991ZM13.1948 0.191991H14.4588V11.072H13.4028L6.44275 2.49599V11.072H5.17875V0.191991H6.20275L13.1948 8.87999V0.191991ZM26.4885 0.191991V1.35999H22.4725V11.072H21.2085V1.35999H17.2085V0.191991H26.4885ZM36.8398 1.35999H30.4878V5.08799H36.1998V6.25599H30.4878V9.90399H36.8398V11.072H29.2238V0.191991H36.8398V1.35999ZM47.4619 11.072L44.2939 7.18399H41.5259V11.072H40.2619V0.191991H44.3739C46.8219 0.191991 48.5339 1.53599 48.5339 3.67999C48.5339 5.40799 47.4299 6.62399 45.7339 7.02399L49.0299 11.072H47.4619ZM41.5259 1.35999V6.01599H44.3419C46.0379 6.01599 47.2859 5.13599 47.2859 3.67999C47.2859 2.22399 46.0379 1.35999 44.3419 1.35999H41.5259ZM59.4941 1.35999H53.1421V5.08799H58.8541V6.25599H53.1421V9.90399H59.4941V11.072H51.8781V0.191991H59.4941V1.35999ZM66.4117 -9.53674e-06C68.5557 -9.53674e-06 70.4117 0.943991 70.6838 3.18399H69.4198C69.1797 1.88799 68.2677 1.08799 66.4917 1.08799C64.8917 1.08799 63.8517 1.80799 63.8517 3.03999C63.8517 3.99999 64.5397 4.54399 65.8357 4.79999L67.6117 5.13599C69.5637 5.51999 70.6677 6.39999 70.6677 7.99999C70.6677 9.98399 69.0357 11.264 66.5877 11.264C63.9797 11.264 62.2837 9.93599 62.0437 7.58399H63.2917C63.5477 9.21599 64.7157 10.128 66.6517 10.128C68.3157 10.128 69.3717 9.37599 69.3717 8.14399C69.3717 7.27999 68.7797 6.60799 67.4037 6.36799L65.3717 5.96799C63.4357 5.59999 62.5077 4.60799 62.5077 3.11999C62.5077 1.21599 64.0757 -9.53674e-06 66.4117 -9.53674e-06ZM81.851 0.191991V1.35999H77.835V11.072H76.571V1.35999H72.571V0.191991H81.851ZM92.2023 1.35999H85.8503V5.08799H91.5623V6.25599H85.8503V9.90399H92.2023V11.072H84.5863V0.191991H92.2023V1.35999ZM99.4484 0.191991C102.808 0.191991 105.192 2.41599 105.192 5.55199C105.192 8.78399 102.808 11.072 99.4484 11.072H95.6244V0.191991H99.4484ZM99.4484 9.90399C102.04 9.90399 103.896 8.09599 103.896 5.55199C103.896 3.11999 102.04 1.35999 99.4484 1.35999H96.8884V9.90399H99.4484ZM111.388 7.99999H110.412L110.3 5.64799H111.068C112.492 5.64799 113.532 4.67199 113.532 3.35999C113.532 2.06399 112.572 1.08799 111.18 1.08799C110.076 1.08799 109.132 1.75999 108.94 2.81599H107.708C107.932 1.10399 109.26 -9.53674e-06 111.132 -9.53674e-06C113.196 -9.53674e-06 114.732 1.40799 114.732 3.34399C114.732 5.13599 113.42 6.41599 111.42 6.52799L111.388 7.99999ZM110.876 11.184C110.428 11.184 110.06 10.832 110.06 10.384C110.06 9.93599 110.428 9.58399 110.876 9.58399C111.324 9.58399 111.692 9.93599 111.692 10.384C111.692 10.832 111.324 11.184 110.876 11.184ZM127.563 0.191991C130.171 0.191991 131.899 1.71199 131.899 3.99999C131.899 6.43199 130.043 8.03199 127.243 8.03199H125.547V11.072H123.371V0.191991H127.563ZM127.483 6.03199C128.843 6.03199 129.755 5.21599 129.755 3.99999C129.755 2.92799 128.843 2.19199 127.483 2.19199H125.547V6.03199H127.483ZM141.213 11.072L140.317 8.89599H135.309L134.413 11.072H132.077L136.797 0.191991H138.829L143.533 11.072H141.213ZM136.093 6.95999H139.517L137.805 2.79999L136.093 6.95999ZM149.5 -9.53674e-06C151.34 -9.53674e-06 153.724 0.719991 153.98 3.50399H151.82C151.676 2.49599 151.036 1.87199 149.66 1.87199C148.46 1.87199 147.676 2.33599 147.676 3.23199C147.676 4.01599 148.252 4.35199 149.292 4.55999L150.572 4.81599C152.7 5.24799 153.916 6.06399 153.916 7.85599C153.916 9.91999 152.22 11.264 149.66 11.264C146.972 11.264 145.1 9.82399 144.94 7.48799H147.1C147.276 8.62399 148.284 9.32799 149.788 9.32799C150.988 9.32799 151.676 8.89599 151.676 8.12799C151.676 7.64799 151.404 7.15199 150.236 6.94399L148.476 6.60799C146.316 6.19199 145.372 5.10399 145.372 3.42399C145.372 1.34399 147.02 -9.53674e-06 149.5 -9.53674e-06ZM165.334 0.191991V2.20799H161.638V11.072H159.462V2.20799H155.766V0.191991H165.334ZM175.695 2.20799H169.871V4.70399H175.055V6.71999H169.871V9.05599H175.695V11.072H167.695V0.191991H175.695V2.20799ZM191.808 0.191991V2.20799H188.112V11.072H185.936V2.20799H182.24V0.191991H191.808ZM201.369 0.191991H203.545V11.072H201.369V6.76799H196.345V11.072H194.169V0.191991H196.345V4.75199H201.369V0.191991ZM206.738 0.191991H208.914V11.072H206.738V0.191991ZM216.36 -9.53674e-06C218.2 -9.53674e-06 220.584 0.719991 220.84 3.50399H218.68C218.536 2.49599 217.896 1.87199 216.52 1.87199C215.32 1.87199 214.536 2.33599 214.536 3.23199C214.536 4.01599 215.112 4.35199 216.152 4.55999L217.432 4.81599C219.56 5.24799 220.776 6.06399 220.776 7.85599C220.776 9.91999 219.08 11.264 216.52 11.264C213.832 11.264 211.96 9.82399 211.8 7.48799H213.96C214.136 8.62399 215.144 9.32799 216.648 9.32799C217.848 9.32799 218.536 8.89599 218.536 8.12799C218.536 7.64799 218.264 7.15199 217.096 6.94399L215.336 6.60799C213.176 6.19199 212.232 5.10399 212.232 3.42399C212.232 1.34399 213.88 -9.53674e-06 216.36 -9.53674e-06ZM233.823 9.23199C235.423 9.23199 236.511 8.31999 236.911 6.71999H239.151C238.655 9.48799 236.591 11.264 233.823 11.264C230.687 11.264 228.159 8.92799 228.159 5.63199C228.159 2.33599 230.687 -9.53674e-06 233.823 -9.53674e-06C236.591 -9.53674e-06 238.655 1.77599 239.151 4.54399H236.911C236.511 2.94399 235.423 2.03199 233.823 2.03199C231.839 2.03199 230.367 3.48799 230.367 5.63199C230.367 7.77599 231.839 9.23199 233.823 9.23199ZM247.47 -9.53674e-06C250.606 -9.53674e-06 253.134 2.49599 253.134 5.63199C253.134 8.76799 250.606 11.264 247.47 11.264C244.334 11.264 241.806 8.76799 241.806 5.63199C241.806 2.49599 244.334 -9.53674e-06 247.47 -9.53674e-06ZM247.47 9.23199C249.454 9.23199 250.926 7.61599 250.926 5.63199C250.926 3.64799 249.454 2.03199 247.47 2.03199C245.486 2.03199 244.014 3.64799 244.014 5.63199C244.014 7.61599 245.486 9.23199 247.47 9.23199ZM260.246 0.191991C263.574 0.191991 266.07 2.51199 266.07 5.58399C266.07 8.71999 263.574 11.072 260.246 11.072H256.07V0.191991H260.246ZM260.246 9.05599C262.246 9.05599 263.862 7.51999 263.862 5.58399C263.862 3.71199 262.246 2.20799 260.246 2.20799H258.246V9.05599H260.246ZM276.998 2.20799H271.174V4.70399H276.358V6.71999H271.174V9.05599H276.998V11.072H268.998V0.191991H276.998V2.20799ZM290.689 -9.53674e-06C293.825 -9.53674e-06 296.353 2.49599 296.353 5.63199C296.353 8.76799 293.825 11.264 290.689 11.264C287.553 11.264 285.025 8.76799 285.025 5.63199C285.025 2.49599 287.553 -9.53674e-06 290.689 -9.53674e-06ZM290.689 10.08C293.153 10.08 295.073 8.09599 295.073 5.63199C295.073 3.16799 293.153 1.18399 290.689 1.18399C288.225 1.18399 286.305 3.16799 286.305 5.63199C286.305 8.09599 288.225 10.08 290.689 10.08ZM307.84 0.191991H309.104V11.072H308.048L301.088 2.49599V11.072H299.824V0.191991H300.848L307.84 8.87999V0.191991ZM326.337 11.072L325.441 8.89599H320.433L319.537 11.072H317.201L321.921 0.191991H323.953L328.657 11.072H326.337ZM321.217 6.95999H324.641L322.929 2.79999L321.217 6.95999ZM338.352 11.072L334.976 6.60799L333.2 8.60799V11.072H331.024V0.191991H333.2V5.64799L338.08 0.191991H340.688L336.432 4.97599L341.136 11.072H338.352ZM351.678 11.072L350.782 8.89599H345.774L344.878 11.072H342.542L347.262 0.191991H349.294L353.998 11.072H351.678ZM346.558 6.95999H349.982L348.27 2.79999L346.558 6.95999ZM363.278 11.072L360.782 7.61599H358.542V11.072H356.366V0.191991H360.958C363.406 0.191991 365.214 1.66399 365.214 3.90399C365.214 5.42399 364.382 6.59199 363.086 7.18399L365.918 11.072H363.278ZM358.542 2.20799V5.59999H360.878C362.078 5.59999 363.07 4.94399 363.07 3.90399C363.07 2.86399 362.078 2.20799 360.878 2.20799H358.542ZM376.614 11.072L375.718 8.89599H370.71L369.814 11.072H367.478L372.198 0.191991H374.23L378.934 11.072H376.614ZM371.494 6.95999H374.918L373.206 2.79999L371.494 6.95999ZM395.292 0.191991V1.35999H391.276V11.072H390.012V1.35999H386.012V0.191991H395.292ZM402.43 -9.53674e-06C405.566 -9.53674e-06 408.094 2.49599 408.094 5.63199C408.094 8.76799 405.566 11.264 402.43 11.264C399.294 11.264 396.766 8.76799 396.766 5.63199C396.766 2.49599 399.294 -9.53674e-06 402.43 -9.53674e-06ZM402.43 10.08C404.894 10.08 406.814 8.09599 406.814 5.63199C406.814 3.16799 404.894 1.18399 402.43 1.18399C399.966 1.18399 398.046 3.16799 398.046 5.63199C398.046 8.09599 399.966 10.08 402.43 10.08ZM420.645 -9.53674e-06C422.789 -9.53674e-06 424.645 0.943991 424.917 3.18399H423.653C423.413 1.88799 422.501 1.08799 420.725 1.08799C419.125 1.08799 418.085 1.80799 418.085 3.03999C418.085 3.99999 418.773 4.54399 420.069 4.79999L421.845 5.13599C423.797 5.51999 424.901 6.39999 424.901 7.99999C424.901 9.98399 423.269 11.264 420.821 11.264C418.213 11.264 416.517 9.93599 416.277 7.58399H417.525C417.781 9.21599 418.949 10.128 420.885 10.128C422.549 10.128 423.605 9.37599 423.605 8.14399C423.605 7.27999 423.013 6.60799 421.637 6.36799L419.605 5.96799C417.669 5.59999 416.741 4.60799 416.741 3.11999C416.741 1.21599 418.309 -9.53674e-06 420.645 -9.53674e-06ZM441.377 0.191991H442.705L438.993 11.152H437.761L434.801 2.44799L431.841 11.152H430.609L426.897 0.191991H428.225L431.217 9.21599L434.257 0.191991H435.345L438.369 9.19999L441.377 0.191991ZM452.507 11.072L451.163 8.03199H445.547L444.203 11.072H442.843L447.755 0.191991H448.955L453.867 11.072H452.507ZM446.043 6.89599H450.651L448.347 1.67999L446.043 6.89599ZM460.62 0.191991C463.132 0.191991 464.812 1.63199 464.812 3.80799C464.812 6.06399 463.068 7.55199 460.46 7.55199H458.044V11.072H456.78V0.191991H460.62ZM460.572 6.38399C462.364 6.38399 463.564 5.35999 463.564 3.80799C463.564 2.33599 462.364 1.34399 460.572 1.34399H458.044V6.38399H460.572ZM467.802 5.11999C467.354 5.11999 466.986 4.76799 466.986 4.30399C466.986 3.85599 467.354 3.51999 467.802 3.51999C468.266 3.51999 468.634 3.85599 468.634 4.30399C468.634 4.76799 468.266 5.11999 467.802 5.11999ZM467.802 11.2C467.354 11.2 466.986 10.848 466.986 10.384C466.986 9.93599 467.354 9.59999 467.802 9.59999C468.266 9.59999 468.634 9.93599 468.634 10.384C468.634 10.848 468.266 11.2 467.802 11.2ZM487.472 -9.53674e-06C490.608 -9.53674e-06 493.136 2.49599 493.136 5.63199C493.136 8.76799 490.608 11.264 487.472 11.264C484.336 11.264 481.808 8.76799 481.808 5.63199C481.808 2.49599 484.336 -9.53674e-06 487.472 -9.53674e-06ZM487.472 9.23199C489.456 9.23199 490.928 7.61599 490.928 5.63199C490.928 3.64799 489.456 2.03199 487.472 2.03199C485.488 2.03199 484.016 3.64799 484.016 5.63199C484.016 7.61599 485.488 9.23199 487.472 9.23199ZM500.263 0.191991C502.871 0.191991 504.599 1.71199 504.599 3.99999C504.599 6.43199 502.743 8.03199 499.943 8.03199H498.247V11.072H496.071V0.191991H500.263ZM500.183 6.03199C501.543 6.03199 502.455 5.21599 502.455 3.99999C502.455 2.92799 501.543 2.19199 500.183 2.19199H498.247V6.03199H500.183ZM514.891 2.20799H509.067V4.70399H514.251V6.71999H509.067V9.05599H514.891V11.072H506.891V0.191991H514.891V2.20799ZM525.216 0.191991H527.392V11.072H525.712L519.824 4.23999V11.072H517.648V0.191991H519.264L525.216 7.21599V0.191991ZM544.012 11.072L543.116 8.89599H538.108L537.212 11.072H534.876L539.596 0.191991H541.628L546.332 11.072H544.012ZM538.892 6.95999H542.316L540.604 2.79999L538.892 6.95999ZM556.028 11.072L552.652 6.60799L550.876 8.60799V11.072H548.7V0.191991H550.876V5.64799L555.756 0.191991H558.364L554.108 4.97599L558.812 11.072H556.028ZM567.806 11.072L565.31 7.61599H563.07V11.072H560.894V0.191991H565.486C567.934 0.191991 569.742 1.66399 569.742 3.90399C569.742 5.42399 568.91 6.59199 567.614 7.18399L570.446 11.072H567.806ZM563.07 2.20799V5.59999H565.406C566.606 5.59999 567.598 4.94399 567.598 3.90399C567.598 2.86399 566.606 2.20799 565.406 2.20799H563.07ZM573.318 7.88799V5.95199H578.902V7.88799H573.318ZM584.756 9.05599H590.372V11.072H582.58V0.191991H584.756V9.05599ZM592.805 0.191991H594.981V11.072H592.805V0.191991ZM602.427 -9.53674e-06C604.267 -9.53674e-06 606.651 0.719991 606.907 3.50399H604.747C604.603 2.49599 603.963 1.87199 602.587 1.87199C601.387 1.87199 600.603 2.33599 600.603 3.23199C600.603 4.01599 601.179 4.35199 602.219 4.55999L603.499 4.81599C605.627 5.24799 606.843 6.06399 606.843 7.85599C606.843 9.91999 605.147 11.264 602.587 11.264C599.899 11.264 598.027 9.82399 597.867 7.48799H600.027C600.203 8.62399 601.211 9.32799 602.715 9.32799C603.915 9.32799 604.603 8.89599 604.603 8.12799C604.603 7.64799 604.331 7.15199 603.163 6.94399L601.403 6.60799C599.243 6.19199 598.299 5.10399 598.299 3.42399C598.299 1.34399 599.947 -9.53674e-06 602.427 -9.53674e-06ZM618.261 0.191991V2.20799H614.565V11.072H612.389V2.20799H608.693V0.191991H618.261ZM619.181 7.88799V5.95199H624.765V7.88799H619.181ZM633.082 -9.53674e-06C636.186 -9.53674e-06 637.978 2.38399 637.978 5.63199C637.978 8.87999 636.186 11.264 633.082 11.264C629.978 11.264 628.17 8.87999 628.17 5.63199C628.17 2.38399 629.978 -9.53674e-06 633.082 -9.53674e-06ZM633.082 9.29599C634.906 9.29599 635.786 7.69599 635.786 5.63199C635.786 3.56799 634.906 1.96799 633.082 1.96799C631.242 1.96799 630.362 3.56799 630.362 5.63199C630.362 7.69599 631.242 9.29599 633.082 9.29599ZM644.898 9.29599H647.522V11.072H639.938V9.29599H642.722V2.57599L640.066 3.47199V1.47199L643.65 0.191991H644.898V9.29599ZM653.45 3.61599C655.898 3.61599 657.642 5.24799 657.642 7.40799C657.642 9.59999 655.898 11.264 653.418 11.264C650.922 11.264 649.194 9.56799 649.194 7.47199C649.194 6.52799 649.562 5.74399 650.202 4.71999L653.066 0.191991H655.594L653.45 3.61599ZM653.418 9.51999C654.666 9.51999 655.53 8.60799 655.53 7.53599C655.53 6.46399 654.682 5.51999 653.418 5.51999C652.874 5.51999 652.378 5.66399 651.994 5.93599C651.482 6.63999 651.29 7.03999 651.29 7.56799C651.29 8.60799 652.17 9.51999 653.418 9.51999Z" fill="white"/>
</svg>
