<svg width="199" height="44" viewBox="0 0 199 44" fill="none" xmlns="http://www.w3.org/2000/svg">
<g clip-path="url(#clip0_83_76)">
<rect width="104" height="44" rx="4" fill="black"/>
<rect width="104" height="44" rx="4" stroke="#1B1818" stroke-width="2"/>
<path d="M16.835 16.62H20.579V27.5H16.835V16.62Z" fill="white"/>
<path d="M39.4502 16.62H41.1623V27.5H39.7863L33.3702 19.82V27.5H31.6422V16.62H32.9702L39.4502 24.46V16.62ZM54.1196 18.204H48.0396V21.324H53.4796V22.908H48.0396V25.9H54.1196V27.5H46.3116V16.62H54.1196V18.204ZM66.6171 18.204H60.5371V21.324H65.9771V22.908H60.5371V25.9H66.6171V27.5H58.8091V16.62H66.6171V18.204ZM75.3226 16.62C78.6666 16.62 81.0986 18.892 81.0986 21.996C81.0986 25.18 78.6666 27.5 75.3226 27.5H71.3066V16.62H75.3226ZM75.3226 25.9C77.6106 25.9 79.3546 24.236 79.3546 21.996C79.3546 19.836 77.6106 18.204 75.3226 18.204H73.0346V25.9H75.3226ZM86.1863 21.868C85.6263 21.868 85.1463 21.436 85.1463 20.86C85.1463 20.284 85.6263 19.852 86.1863 19.852C86.7623 19.852 87.2423 20.284 87.2423 20.86C87.2423 21.436 86.7623 21.868 86.1863 21.868ZM86.1863 27.612C85.6263 27.612 85.1463 27.18 85.1463 26.604C85.1463 26.028 85.6263 25.596 86.1863 25.596C86.7623 25.596 87.2423 26.028 87.2423 26.604C87.2423 27.18 86.7623 27.612 86.1863 27.612Z" fill="#E9EBED"/>
<rect x="113" width="86" height="44" rx="4" fill="#9DFF1E"/>
<path d="M146.281 30H140.785L138.217 25.704H138.025H135.457V30H130.633V13.68H138.025C142.441 13.68 145.153 15.864 145.153 19.608C145.153 21.576 144.313 23.256 142.777 24.36L146.281 30ZM135.457 17.784V21.432H137.977C139.297 21.432 140.281 20.688 140.281 19.56C140.281 18.48 139.297 17.784 137.977 17.784H135.457ZM164.409 13.68H169.545L164.217 30.096H159.753L156.825 20.712L153.897 30.096H149.433L144.105 13.68H149.241L151.785 22.608L154.857 13.68H158.793L161.841 22.632L164.409 13.68ZM182.303 17.808H174.599V20.52H181.151V24.576H174.599V30H169.775V13.68H182.303V17.808Z" fill="black"/>
</g>
<defs>
<clipPath id="clip0_83_76">
<rect width="199" height="44" rx="4" fill="white"/>
</clipPath>
</defs>
</svg>
