<svg width="126" height="44" viewBox="0 0 126 44" fill="none" xmlns="http://www.w3.org/2000/svg">
<rect x="2" y="2" width="122" height="40" rx="4" fill="#E8F500"/>
<rect x="2" y="2" width="122" height="40" rx="4" stroke="black" stroke-width="4"/>
<path d="M31.7734 15.76L26.9674 24.67L26.9854 28H23.3494L23.3314 24.67L18.5254 15.76H22.5394L25.1314 20.584L27.7594 15.76H31.7734ZM34.2809 18.892C37.1969 18.892 39.3029 20.854 39.3029 23.59C39.3029 26.308 37.1969 28.252 34.2809 28.252C31.3469 28.252 29.2589 26.308 29.2589 23.59C29.2589 20.854 31.3469 18.892 34.2809 18.892ZM34.2809 25.534C35.3969 25.534 36.1889 24.724 36.1889 23.59C36.1889 22.438 35.3969 21.61 34.2809 21.61C33.1649 21.61 32.3549 22.438 32.3549 23.59C32.3549 24.724 33.1649 25.534 34.2809 25.534ZM45.6825 19.144H49.1745V28H45.6825V27.46C44.9985 27.982 44.2785 28.252 43.3785 28.252C41.2545 28.252 39.7425 26.866 39.7425 24.418V19.144H43.2345V23.644C43.2345 24.724 43.7925 25.12 44.4765 25.12C44.9085 25.12 45.2865 24.94 45.6825 24.544V19.144ZM49.7552 19.972L50.7452 17.812C50.0792 17.506 49.7552 16.948 49.7552 16.336C49.7552 15.382 50.5652 14.626 51.5732 14.626C52.5812 14.626 53.4092 15.364 53.4092 16.372C53.4092 16.804 53.3732 17.092 52.7612 18.082L51.5912 19.972H49.7552ZM59.8662 19V22.312C58.3542 22.33 57.5262 22.69 56.8962 23.212V28H53.4222V19.144H56.8962V20.044C57.6702 19.414 58.5522 19 59.8662 19ZM64.4925 18.892C67.6785 18.892 69.6225 21.016 69.2085 24.238H62.8185C63.0165 25.066 63.5925 25.696 64.6365 25.696C65.2845 25.696 65.6265 25.552 65.8605 25.264H69.1365C68.6865 27.046 66.9945 28.252 64.7805 28.252C61.7925 28.252 59.8125 26.29 59.8125 23.554C59.8125 20.8 61.6845 18.892 64.4925 18.892ZM64.5825 21.178C63.7005 21.178 63.1245 21.628 62.8725 22.51H66.2205C66.0765 21.592 65.5185 21.178 64.5825 21.178ZM79.5051 18.892C81.6471 18.892 83.1591 20.26 83.1591 22.708V28H79.6671V23.464C79.6671 22.384 79.0911 22.006 78.4251 22.006C77.9931 22.006 77.5971 22.186 77.2011 22.582V28H73.7271V19.144H77.2011V19.666C77.9031 19.144 78.6231 18.892 79.5051 18.892ZM88.7077 18.892C91.6237 18.892 93.7297 20.854 93.7297 23.59C93.7297 26.308 91.6237 28.252 88.7077 28.252C85.7737 28.252 83.6857 26.308 83.6857 23.59C83.6857 20.854 85.7737 18.892 88.7077 18.892ZM88.7077 25.534C89.8237 25.534 90.6157 24.724 90.6157 23.59C90.6157 22.438 89.8237 21.61 88.7077 21.61C87.5917 21.61 86.7817 22.438 86.7817 23.59C86.7817 24.724 87.5917 25.534 88.7077 25.534ZM103.9 19.144H107.446L104.71 28H101.596L100.246 23.302L98.8963 28H95.7823L93.0463 19.144H96.5923L97.5823 23.842L98.9323 19.144H101.56L102.928 23.842L103.9 19.144Z" fill="black"/>
</svg>
