<svg width="199" height="44" viewBox="0 0 199 44" fill="none" xmlns="http://www.w3.org/2000/svg">
<g clip-path="url(#clip0_83_75)">
<rect width="104" height="44" rx="4" fill="black"/>
<rect width="104" height="44" rx="4" stroke="#1B1818" stroke-width="2"/>
<path d="M16.9131 16.62H20.6571V27.5H16.9131V16.62Z" fill="white"/>
<path d="M39.1604 16.62H40.8724V27.5H39.1604V22.956H33.4484V27.5H31.7204V16.62H33.4484V21.356H39.1604V16.62ZM54.5104 27.5L53.3904 24.892H48.0784L46.9584 27.5H45.1184L49.9344 16.62H51.5504L56.3504 27.5H54.5104ZM48.7184 23.356H52.7344L50.7344 18.668L48.7184 23.356ZM67.3409 16.62H69.2129L64.2689 27.564H62.6849L57.7249 16.62H59.6129L63.4689 25.228L67.3409 16.62ZM81.1146 18.204H75.0346V21.324H80.4746V22.908H75.0346V25.9H81.1146V27.5H73.3066V16.62H81.1146V18.204ZM86.1081 21.868C85.5481 21.868 85.0681 21.436 85.0681 20.86C85.0681 20.284 85.5481 19.852 86.1081 19.852C86.6841 19.852 87.1641 20.284 87.1641 20.86C87.1641 21.436 86.6841 21.868 86.1081 21.868ZM86.1081 27.612C85.5481 27.612 85.0681 27.18 85.0681 26.604C85.0681 26.028 85.5481 25.596 86.1081 25.596C86.6841 25.596 87.1641 26.028 87.1641 26.604C87.1641 27.18 86.6841 27.612 86.1081 27.612Z" fill="#E9EBED"/>
<rect x="113" width="86" height="44" rx="4" fill="#F80000"/>
<path d="M141.134 13.68H145.982V30H142.214L135.398 22.296V30H130.574V13.68H134.342L141.134 21.528V13.68ZM155.419 20.712H164.419V30H160.915L160.795 28.488C159.547 29.688 157.915 30.336 155.947 30.336C150.667 30.336 147.043 26.808 147.043 21.912C147.043 16.944 150.715 13.344 155.899 13.344C160.411 13.344 163.867 15.936 164.251 19.632H159.235C158.683 18.192 157.459 17.616 155.995 17.616C153.523 17.616 151.963 19.44 151.963 21.768C151.963 24.168 153.643 25.968 156.259 25.968C157.651 25.968 158.971 25.392 159.907 24.168L155.419 24.12V20.712ZM176.573 13.68H181.421V30H177.653L170.837 22.296V30H166.013V13.68H169.781L176.573 21.528V13.68Z" fill="white"/>
</g>
<defs>
<clipPath id="clip0_83_75">
<rect width="199" height="44" rx="4" fill="white"/>
</clipPath>
</defs>
</svg>
