<svg width="800" height="400" viewBox="0 0 800 400" fill="none" xmlns="http://www.w3.org/2000/svg">
<g clip-path="url(#clip0_85_116)">
<rect width="800" height="400" fill="black"/>
<path d="M201.903 314.234L196.051 279.124H93.4219L74.9666 314.234H-38.9159L139.785 6.34606H244.215L313.985 314.234H201.903ZM135.734 197.201H182.097L170.844 130.131L135.734 197.201ZM613.401 8.14657L479.263 140.935L563.887 314.234H440.552L392.388 226.459L353.227 265.17L344.675 314.234H239.345L293.36 8.14657H398.69L379.785 116.177L490.066 8.14657H613.401ZM814.324 104.024C814.324 149.487 791.368 190.449 750.856 215.656L799.92 314.234H673.434L641.925 242.213H612.216L599.613 314.234H494.283L548.298 8.14657H691.439C770.662 8.14657 814.324 41.4561 814.324 104.024ZM638.324 95.4715L628.421 150.387H666.232C688.738 150.387 705.393 135.983 705.393 118.428C705.393 104.024 694.14 95.4715 676.135 95.4715H638.324Z" fill="#5C6670" fill-opacity="0.13"/>
<rect y="320" width="800" height="51" fill="#0F1012"/>
<rect y="373" width="800" height="6" fill="#9DFF1E"/>
<rect y="381" width="800" height="6" fill="white"/>
<rect y="389" width="800" height="6" fill="#F80000"/>
<path d="M288.924 33.312C290.8 33.312 292.424 34.138 292.662 36.098H291.556C291.346 34.964 290.548 34.264 288.994 34.264C287.594 34.264 286.684 34.894 286.684 35.972C286.684 36.812 287.286 37.288 288.42 37.512L289.974 37.806C291.682 38.142 292.648 38.912 292.648 40.312C292.648 42.048 291.22 43.168 289.078 43.168C286.796 43.168 285.312 42.006 285.102 39.948H286.194C286.418 41.376 287.44 42.174 289.134 42.174C290.59 42.174 291.514 41.516 291.514 40.438C291.514 39.682 290.996 39.094 289.792 38.884L288.014 38.534C286.32 38.212 285.508 37.344 285.508 36.042C285.508 34.376 286.88 33.312 288.924 33.312ZM308.464 33.48H309.626L306.378 43.07H305.3L302.71 35.454L300.12 43.07H299.042L295.794 33.48H296.956L299.574 41.376L302.234 33.48H303.186L305.832 41.362L308.464 33.48ZM319.603 43L318.427 40.34H313.513L312.337 43H311.147L315.445 33.48H316.495L320.793 43H319.603ZM313.947 39.346H317.979L315.963 34.782L313.947 39.346ZM328.102 33.48C330.3 33.48 331.77 34.74 331.77 36.644C331.77 38.618 330.244 39.92 327.962 39.92H325.848V43H324.742V33.48H328.102ZM328.06 38.898C329.628 38.898 330.678 38.002 330.678 36.644C330.678 35.356 329.628 34.488 328.06 34.488H325.848V38.898H328.06ZM352.72 33.48H355.226L352.104 43.056H349.864L347.946 37.218L346.028 43.056H343.788L340.666 33.48H343.172L344.95 39.388L346.966 33.48H348.926L350.942 39.388L352.72 33.48ZM358.44 33.48H360.806V43H358.44V33.48ZM372.541 33.48V35.594H369.503V43H367.151V35.594H364.113V33.48H372.541ZM382.097 33.48H384.449V43H382.097V39.43H378.219V43H375.853V33.48H378.219V37.302H382.097V33.48ZM404.486 33.48V43H402.12V38.226L400.006 41.488V41.502H398.69V41.488L396.562 38.198L396.576 43H394.21V33.48H395.974L399.348 38.562L402.722 33.48H404.486ZM415.595 35.538H410.765V37.274H414.993V39.29H410.765V40.942H415.595V43H408.399V33.48H415.595V35.538ZM429.316 33.298C432.186 33.298 434.356 35.468 434.356 38.24C434.356 41.012 432.186 43.182 429.316 43.182C426.446 43.182 424.276 41.012 424.276 38.24C424.276 35.468 426.446 33.298 429.316 33.298ZM429.316 40.97C430.856 40.97 431.962 39.738 431.962 38.24C431.962 36.742 430.856 35.51 429.316 35.51C427.776 35.51 426.67 36.742 426.67 38.24C426.67 39.738 427.776 40.97 429.316 40.97ZM444.445 33.48H446.797V43H444.977L440.413 37.778V43H438.047V33.48H439.853L444.445 38.842V33.48ZM463.708 43L463.064 41.362H459.032L458.402 43H455.882L459.928 33.48H462.196L466.228 43H463.708ZM459.802 39.388H462.294L461.048 36.182L459.802 39.388ZM475.786 43L473.238 39.444L471.838 41.068V43H469.472V33.48H471.838V37.848L475.632 33.48H478.432L474.806 37.652L478.74 43H475.786ZM489.052 43L488.408 41.362H484.376L483.746 43H481.226L485.272 33.48H487.54L491.572 43H489.052ZM485.146 39.388H487.638L486.392 36.182L485.146 39.388ZM503.551 43H500.793L498.987 40.242H498.973H497.181V43H494.815V33.48H498.973C501.339 33.48 502.921 34.768 502.921 36.826C502.921 38.072 502.319 39.08 501.311 39.668L503.551 43ZM497.181 35.566V38.114H498.931C499.841 38.114 500.555 37.61 500.555 36.826C500.555 36.056 499.841 35.566 498.931 35.566H497.181ZM514.026 43L513.382 41.362H509.35L508.72 43H506.2L510.246 33.48H512.514L516.546 43H514.026ZM510.12 39.388H512.612L511.366 36.182L510.12 39.388Z" fill="white"/>
<path d="M71.5996 338.12H72.8636V349H71.5996V338.12ZM84.7943 338.12H86.0583V349H85.0023L78.0423 340.424V349H76.7783V338.12H77.8023L84.7943 346.808V338.12ZM98.0881 338.12V339.288H94.0721V349H92.8081V339.288H88.8081V338.12H98.0881ZM108.439 339.288H102.087V343.016H107.799V344.184H102.087V347.832H108.439V349H100.823V338.12H108.439V339.288ZM119.061 349L115.893 345.112H113.125V349H111.861V338.12H115.973C118.421 338.12 120.133 339.464 120.133 341.608C120.133 343.336 119.029 344.552 117.333 344.952L120.629 349H119.061ZM113.125 339.288V343.944H115.941C117.637 343.944 118.885 343.064 118.885 341.608C118.885 340.152 117.637 339.288 115.941 339.288H113.125ZM131.094 339.288H124.742V343.016H130.454V344.184H124.742V347.832H131.094V349H123.478V338.12H131.094V339.288ZM138.011 337.928C140.155 337.928 142.011 338.872 142.283 341.112H141.019C140.779 339.816 139.867 339.016 138.091 339.016C136.491 339.016 135.451 339.736 135.451 340.968C135.451 341.928 136.139 342.472 137.435 342.728L139.211 343.064C141.163 343.448 142.267 344.328 142.267 345.928C142.267 347.912 140.635 349.192 138.187 349.192C135.579 349.192 133.883 347.864 133.643 345.512H134.891C135.147 347.144 136.315 348.056 138.251 348.056C139.915 348.056 140.971 347.304 140.971 346.072C140.971 345.208 140.379 344.536 139.003 344.296L136.971 343.896C135.035 343.528 134.107 342.536 134.107 341.048C134.107 339.144 135.675 337.928 138.011 337.928ZM153.451 338.12V339.288H149.435V349H148.171V339.288H144.171V338.12H153.451ZM163.802 339.288H157.45V343.016H163.162V344.184H157.45V347.832H163.802V349H156.186V338.12H163.802V339.288ZM171.048 338.12C174.408 338.12 176.792 340.344 176.792 343.48C176.792 346.712 174.408 349 171.048 349H167.224V338.12H171.048ZM171.048 347.832C173.64 347.832 175.496 346.024 175.496 343.48C175.496 341.048 173.64 339.288 171.048 339.288H168.488V347.832H171.048ZM182.988 345.928H182.012L181.9 343.576H182.668C184.092 343.576 185.132 342.6 185.132 341.288C185.132 339.992 184.172 339.016 182.78 339.016C181.676 339.016 180.732 339.688 180.54 340.744H179.308C179.532 339.032 180.86 337.928 182.732 337.928C184.796 337.928 186.332 339.336 186.332 341.272C186.332 343.064 185.02 344.344 183.02 344.456L182.988 345.928ZM182.476 349.112C182.028 349.112 181.66 348.76 181.66 348.312C181.66 347.864 182.028 347.512 182.476 347.512C182.924 347.512 183.292 347.864 183.292 348.312C183.292 348.76 182.924 349.112 182.476 349.112ZM199.162 338.12C201.77 338.12 203.498 339.64 203.498 341.928C203.498 344.36 201.642 345.96 198.842 345.96H197.146V349H194.97V338.12H199.162ZM199.082 343.96C200.442 343.96 201.354 343.144 201.354 341.928C201.354 340.856 200.442 340.12 199.082 340.12H197.146V343.96H199.082ZM212.812 349L211.916 346.824H206.908L206.012 349H203.676L208.396 338.12H210.428L215.132 349H212.812ZM207.692 344.888H211.116L209.404 340.728L207.692 344.888ZM221.099 337.928C222.939 337.928 225.323 338.648 225.579 341.432H223.419C223.275 340.424 222.635 339.8 221.259 339.8C220.059 339.8 219.275 340.264 219.275 341.16C219.275 341.944 219.851 342.28 220.891 342.488L222.171 342.744C224.299 343.176 225.515 343.992 225.515 345.784C225.515 347.848 223.819 349.192 221.259 349.192C218.571 349.192 216.699 347.752 216.539 345.416H218.699C218.875 346.552 219.883 347.256 221.387 347.256C222.587 347.256 223.275 346.824 223.275 346.056C223.275 345.576 223.003 345.08 221.835 344.872L220.075 344.536C217.915 344.12 216.971 343.032 216.971 341.352C216.971 339.272 218.619 337.928 221.099 337.928ZM236.933 338.12V340.136H233.237V349H231.061V340.136H227.365V338.12H236.933ZM247.295 340.136H241.471V342.632H246.655V344.648H241.471V346.984H247.295V349H239.295V338.12H247.295V340.136ZM263.407 338.12V340.136H259.711V349H257.535V340.136H253.839V338.12H263.407ZM272.968 338.12H275.144V349H272.968V344.696H267.944V349H265.768V338.12H267.944V342.68H272.968V338.12ZM278.338 338.12H280.514V349H278.338V338.12ZM287.96 337.928C289.8 337.928 292.184 338.648 292.44 341.432H290.28C290.136 340.424 289.496 339.8 288.12 339.8C286.92 339.8 286.136 340.264 286.136 341.16C286.136 341.944 286.712 342.28 287.752 342.488L289.032 342.744C291.16 343.176 292.376 343.992 292.376 345.784C292.376 347.848 290.68 349.192 288.12 349.192C285.432 349.192 283.56 347.752 283.4 345.416H285.56C285.736 346.552 286.744 347.256 288.248 347.256C289.448 347.256 290.136 346.824 290.136 346.056C290.136 345.576 289.864 345.08 288.696 344.872L286.936 344.536C284.776 344.12 283.832 343.032 283.832 341.352C283.832 339.272 285.48 337.928 287.96 337.928ZM305.422 347.16C307.022 347.16 308.11 346.248 308.51 344.648H310.75C310.254 347.416 308.19 349.192 305.422 349.192C302.286 349.192 299.758 346.856 299.758 343.56C299.758 340.264 302.286 337.928 305.422 337.928C308.19 337.928 310.254 339.704 310.75 342.472H308.51C308.11 340.872 307.022 339.96 305.422 339.96C303.438 339.96 301.966 341.416 301.966 343.56C301.966 345.704 303.438 347.16 305.422 347.16ZM319.07 337.928C322.206 337.928 324.734 340.424 324.734 343.56C324.734 346.696 322.206 349.192 319.07 349.192C315.934 349.192 313.406 346.696 313.406 343.56C313.406 340.424 315.934 337.928 319.07 337.928ZM319.07 347.16C321.054 347.16 322.526 345.544 322.526 343.56C322.526 341.576 321.054 339.96 319.07 339.96C317.086 339.96 315.614 341.576 315.614 343.56C315.614 345.544 317.086 347.16 319.07 347.16ZM331.845 338.12C335.173 338.12 337.669 340.44 337.669 343.512C337.669 346.648 335.173 349 331.845 349H327.669V338.12H331.845ZM331.845 346.984C333.845 346.984 335.461 345.448 335.461 343.512C335.461 341.64 333.845 340.136 331.845 340.136H329.845V346.984H331.845ZM348.598 340.136H342.774V342.632H347.958V344.648H342.774V346.984H348.598V349H340.598V338.12H348.598V340.136ZM362.289 337.928C365.425 337.928 367.953 340.424 367.953 343.56C367.953 346.696 365.425 349.192 362.289 349.192C359.153 349.192 356.625 346.696 356.625 343.56C356.625 340.424 359.153 337.928 362.289 337.928ZM362.289 348.008C364.753 348.008 366.673 346.024 366.673 343.56C366.673 341.096 364.753 339.112 362.289 339.112C359.825 339.112 357.905 341.096 357.905 343.56C357.905 346.024 359.825 348.008 362.289 348.008ZM379.44 338.12H380.704V349H379.648L372.688 340.424V349H371.424V338.12H372.448L379.44 346.808V338.12ZM397.936 349L397.04 346.824H392.032L391.136 349H388.8L393.52 338.12H395.552L400.256 349H397.936ZM392.816 344.888H396.24L394.528 340.728L392.816 344.888ZM409.951 349L406.575 344.536L404.799 346.536V349H402.623V338.12H404.799V343.576L409.679 338.12H412.287L408.031 342.904L412.735 349H409.951ZM423.278 349L422.382 346.824H417.374L416.478 349H414.142L418.862 338.12H420.894L425.598 349H423.278ZM418.158 344.888H421.582L419.87 340.728L418.158 344.888ZM434.877 349L432.381 345.544H430.141V349H427.965V338.12H432.557C435.005 338.12 436.813 339.592 436.813 341.832C436.813 343.352 435.981 344.52 434.685 345.112L437.517 349H434.877ZM430.141 340.136V343.528H432.477C433.677 343.528 434.669 342.872 434.669 341.832C434.669 340.792 433.677 340.136 432.477 340.136H430.141ZM448.214 349L447.318 346.824H442.31L441.414 349H439.078L443.798 338.12H445.83L450.534 349H448.214ZM443.094 344.888H446.518L444.806 340.728L443.094 344.888ZM466.891 338.12V339.288H462.875V349H461.611V339.288H457.611V338.12H466.891ZM474.03 337.928C477.166 337.928 479.694 340.424 479.694 343.56C479.694 346.696 477.166 349.192 474.03 349.192C470.894 349.192 468.366 346.696 468.366 343.56C468.366 340.424 470.894 337.928 474.03 337.928ZM474.03 348.008C476.494 348.008 478.414 346.024 478.414 343.56C478.414 341.096 476.494 339.112 474.03 339.112C471.566 339.112 469.646 341.096 469.646 343.56C469.646 346.024 471.566 348.008 474.03 348.008ZM492.245 337.928C494.389 337.928 496.245 338.872 496.517 341.112H495.253C495.013 339.816 494.101 339.016 492.325 339.016C490.725 339.016 489.685 339.736 489.685 340.968C489.685 341.928 490.373 342.472 491.669 342.728L493.445 343.064C495.397 343.448 496.501 344.328 496.501 345.928C496.501 347.912 494.869 349.192 492.421 349.192C489.813 349.192 488.117 347.864 487.877 345.512H489.125C489.381 347.144 490.549 348.056 492.485 348.056C494.149 348.056 495.205 347.304 495.205 346.072C495.205 345.208 494.613 344.536 493.237 344.296L491.205 343.896C489.269 343.528 488.341 342.536 488.341 341.048C488.341 339.144 489.909 337.928 492.245 337.928ZM512.977 338.12H514.305L510.593 349.08H509.361L506.401 340.376L503.441 349.08H502.209L498.497 338.12H499.825L502.817 347.144L505.857 338.12H506.945L509.969 347.128L512.977 338.12ZM524.106 349L522.762 345.96H517.146L515.802 349H514.442L519.354 338.12H520.554L525.466 349H524.106ZM517.642 344.824H522.25L519.946 339.608L517.642 344.824ZM532.22 338.12C534.732 338.12 536.412 339.56 536.412 341.736C536.412 343.992 534.668 345.48 532.06 345.48H529.644V349H528.38V338.12H532.22ZM532.172 344.312C533.964 344.312 535.164 343.288 535.164 341.736C535.164 340.264 533.964 339.272 532.172 339.272H529.644V344.312H532.172ZM539.401 343.048C538.953 343.048 538.585 342.696 538.585 342.232C538.585 341.784 538.953 341.448 539.401 341.448C539.865 341.448 540.233 341.784 540.233 342.232C540.233 342.696 539.865 343.048 539.401 343.048ZM539.401 349.128C538.953 349.128 538.585 348.776 538.585 348.312C538.585 347.864 538.953 347.528 539.401 347.528C539.865 347.528 540.233 347.864 540.233 348.312C540.233 348.776 539.865 349.128 539.401 349.128ZM559.072 337.928C562.208 337.928 564.736 340.424 564.736 343.56C564.736 346.696 562.208 349.192 559.072 349.192C555.936 349.192 553.408 346.696 553.408 343.56C553.408 340.424 555.936 337.928 559.072 337.928ZM559.072 347.16C561.056 347.16 562.528 345.544 562.528 343.56C562.528 341.576 561.056 339.96 559.072 339.96C557.088 339.96 555.616 341.576 555.616 343.56C555.616 345.544 557.088 347.16 559.072 347.16ZM571.863 338.12C574.471 338.12 576.199 339.64 576.199 341.928C576.199 344.36 574.343 345.96 571.543 345.96H569.847V349H567.671V338.12H571.863ZM571.783 343.96C573.143 343.96 574.055 343.144 574.055 341.928C574.055 340.856 573.143 340.12 571.783 340.12H569.847V343.96H571.783ZM586.49 340.136H580.666V342.632H585.85V344.648H580.666V346.984H586.49V349H578.49V338.12H586.49V340.136ZM596.815 338.12H598.991V349H597.311L591.423 342.168V349H589.247V338.12H590.863L596.815 345.144V338.12ZM615.612 349L614.716 346.824H609.708L608.812 349H606.476L611.196 338.12H613.228L617.932 349H615.612ZM610.492 344.888H613.916L612.204 340.728L610.492 344.888ZM627.627 349L624.251 344.536L622.475 346.536V349H620.299V338.12H622.475V343.576L627.355 338.12H629.963L625.707 342.904L630.411 349H627.627ZM639.405 349L636.909 345.544H634.669V349H632.493V338.12H637.085C639.533 338.12 641.341 339.592 641.341 341.832C641.341 343.352 640.509 344.52 639.213 345.112L642.045 349H639.405ZM634.669 340.136V343.528H637.005C638.205 343.528 639.197 342.872 639.197 341.832C639.197 340.792 638.205 340.136 637.005 340.136H634.669ZM644.918 345.816V343.88H650.502V345.816H644.918ZM656.355 346.984H661.971V349H654.179V338.12H656.355V346.984ZM664.405 338.12H666.581V349H664.405V338.12ZM674.027 337.928C675.867 337.928 678.251 338.648 678.507 341.432H676.347C676.203 340.424 675.563 339.8 674.187 339.8C672.987 339.8 672.203 340.264 672.203 341.16C672.203 341.944 672.779 342.28 673.819 342.488L675.099 342.744C677.227 343.176 678.443 343.992 678.443 345.784C678.443 347.848 676.747 349.192 674.187 349.192C671.499 349.192 669.627 347.752 669.467 345.416H671.627C671.803 346.552 672.811 347.256 674.315 347.256C675.515 347.256 676.203 346.824 676.203 346.056C676.203 345.576 675.931 345.08 674.763 344.872L673.003 344.536C670.843 344.12 669.899 343.032 669.899 341.352C669.899 339.272 671.547 337.928 674.027 337.928ZM689.861 338.12V340.136H686.165V349H683.989V340.136H680.293V338.12H689.861ZM690.78 345.816V343.88H696.364V345.816H690.78ZM704.682 337.928C707.786 337.928 709.578 340.312 709.578 343.56C709.578 346.808 707.786 349.192 704.682 349.192C701.578 349.192 699.77 346.808 699.77 343.56C699.77 340.312 701.578 337.928 704.682 337.928ZM704.682 347.224C706.506 347.224 707.386 345.624 707.386 343.56C707.386 341.496 706.506 339.896 704.682 339.896C702.842 339.896 701.962 341.496 701.962 343.56C701.962 345.624 702.842 347.224 704.682 347.224ZM716.497 347.224H719.121V349H711.537V347.224H714.321V340.504L711.665 341.4V339.4L715.249 338.12H716.497V347.224ZM725.05 341.544C727.498 341.544 729.242 343.176 729.242 345.336C729.242 347.528 727.498 349.192 725.018 349.192C722.522 349.192 720.794 347.496 720.794 345.4C720.794 344.456 721.162 343.672 721.802 342.648L724.666 338.12H727.194L725.05 341.544ZM725.018 347.448C726.266 347.448 727.13 346.536 727.13 345.464C727.13 344.392 726.282 343.448 725.018 343.448C724.474 343.448 723.978 343.592 723.594 343.864C723.082 344.568 722.89 344.968 722.89 345.496C722.89 346.536 723.77 347.448 725.018 347.448Z" fill="white"/>
<path d="M482.962 196H471.202V131.08H465.082V121.6C470.242 121.6 472.162 119.08 472.642 116.32H482.962V196ZM489.061 213.88V207.28C492.541 205.36 494.221 202.48 494.221 198.76V196H489.061V184.24H500.941V197.08C500.941 206.92 496.741 212.44 489.061 213.88ZM519.402 196H507.642V131.08H501.522V121.6C506.682 121.6 508.602 119.08 509.082 116.32H519.402V196ZM554.422 158.8V180.88C554.422 190.96 549.502 196.6 539.902 196.6C532.702 196.6 525.502 193.48 525.502 181.24V175.48H537.022V181.84C537.022 184.24 537.862 185.44 539.662 185.44C541.462 185.44 542.422 184.24 542.422 181.84V160.12C542.422 157.36 541.222 156.52 539.662 156.52C538.582 156.52 537.622 157 536.782 158.08H525.502L526.942 116.32H552.622V127H537.382L536.542 148.96H537.022C538.582 147.16 540.982 146.2 544.102 146.2C549.382 146.2 554.422 148.84 554.422 158.8ZM590.117 135.52V176.92C590.117 190.24 584.957 196.6 575.597 196.6C565.877 196.6 560.597 189.52 560.597 176.56V135.76C560.597 122.8 565.877 115.84 575.597 115.84C584.957 115.84 590.117 122.2 590.117 135.52ZM578.117 176.92V135.4C578.117 129.76 577.157 127 575.357 127C573.557 127 572.717 129.76 572.717 135.4V176.92C572.717 182.68 573.557 185.44 575.357 185.44C577.157 185.44 578.117 182.68 578.117 176.92ZM595.223 213.88V207.28C598.703 205.36 600.383 202.48 600.383 198.76V196H595.223V184.24H607.103V197.08C607.103 206.92 602.903 212.44 595.223 213.88ZM641.675 135.52V176.92C641.675 190.24 636.515 196.6 627.155 196.6C617.435 196.6 612.155 189.52 612.155 176.56V135.76C612.155 122.8 617.435 115.84 627.155 115.84C636.515 115.84 641.675 122.2 641.675 135.52ZM629.675 176.92V135.4C629.675 129.76 628.715 127 626.915 127C625.115 127 624.275 129.76 624.275 135.4V176.92C624.275 182.68 625.115 185.44 626.915 185.44C628.715 185.44 629.675 182.68 629.675 176.92ZM677.356 135.52V176.92C677.356 190.24 672.196 196.6 662.836 196.6C653.116 196.6 647.836 189.52 647.836 176.56V135.76C647.836 122.8 653.116 115.84 662.836 115.84C672.196 115.84 677.356 122.2 677.356 135.52ZM665.356 176.92V135.4C665.356 129.76 664.396 127 662.596 127C660.796 127 659.956 129.76 659.956 135.4V176.92C659.956 182.68 660.796 185.44 662.596 185.44C664.396 185.44 665.356 182.68 665.356 176.92ZM713.037 135.52V176.92C713.037 190.24 707.877 196.6 698.517 196.6C688.797 196.6 683.517 189.52 683.517 176.56V135.76C683.517 122.8 688.797 115.84 698.517 115.84C707.877 115.84 713.037 122.2 713.037 135.52ZM701.037 176.92V135.4C701.037 129.76 700.077 127 698.277 127C696.477 127 695.637 129.76 695.637 135.4V176.92C695.637 182.68 696.477 185.44 698.277 185.44C700.077 185.44 701.037 182.68 701.037 176.92Z" fill="white"/>
<rect x="490" y="220" width="104" height="44" rx="4" fill="black"/>
<rect x="490" y="220" width="104" height="44" rx="4" stroke="#1B1818" stroke-width="2"/>
<path d="M506.835 236.62H510.579V247.5H506.835V236.62Z" fill="white"/>
<path d="M529.45 236.62H531.162V247.5H529.786L523.37 239.82V247.5H521.642V236.62H522.97L529.45 244.46V236.62ZM544.12 238.204H538.04V241.324H543.48V242.908H538.04V245.9H544.12V247.5H536.312V236.62H544.12V238.204ZM556.617 238.204H550.537V241.324H555.977V242.908H550.537V245.9H556.617V247.5H548.809V236.62H556.617V238.204ZM565.323 236.62C568.667 236.62 571.099 238.892 571.099 241.996C571.099 245.18 568.667 247.5 565.323 247.5H561.307V236.62H565.323ZM565.323 245.9C567.611 245.9 569.355 244.236 569.355 241.996C569.355 239.836 567.611 238.204 565.323 238.204H563.035V245.9H565.323ZM576.186 241.868C575.626 241.868 575.146 241.436 575.146 240.86C575.146 240.284 575.626 239.852 576.186 239.852C576.762 239.852 577.242 240.284 577.242 240.86C577.242 241.436 576.762 241.868 576.186 241.868ZM576.186 247.612C575.626 247.612 575.146 247.18 575.146 246.604C575.146 246.028 575.626 245.596 576.186 245.596C576.762 245.596 577.242 246.028 577.242 246.604C577.242 247.18 576.762 247.612 576.186 247.612Z" fill="#E9EBED"/>
<rect x="603" y="220" width="86" height="44" rx="4" fill="#9DFF1E"/>
<path d="M636.281 250H630.785L628.217 245.704H628.025H625.457V250H620.633V233.68H628.025C632.441 233.68 635.153 235.864 635.153 239.608C635.153 241.576 634.313 243.256 632.777 244.36L636.281 250ZM625.457 237.784V241.432H627.977C629.297 241.432 630.281 240.688 630.281 239.56C630.281 238.48 629.297 237.784 627.977 237.784H625.457ZM654.409 233.68H659.545L654.217 250.096H649.753L646.825 240.712L643.897 250.096H639.433L634.105 233.68H639.241L641.785 242.608L644.857 233.68H648.793L651.841 242.632L654.409 233.68ZM672.303 237.808H664.599V240.52H671.151V244.576H664.599V250H659.775V233.68H672.303V237.808Z" fill="black"/>
<path d="M105.383 196H93.6227V131.08H87.5027V121.6C92.6627 121.6 94.5827 119.08 95.0627 116.32H105.383V196ZM110.282 213.88V207.28C113.762 205.36 115.442 202.48 115.442 198.76V196H110.282V184.24H122.162V197.08C122.162 206.92 117.962 212.44 110.282 213.88ZM155.533 135.52V176.92C155.533 190.24 150.373 196.6 141.013 196.6C131.293 196.6 126.013 189.52 126.013 176.56V135.76C126.013 122.8 131.293 115.84 141.013 115.84C150.373 115.84 155.533 122.2 155.533 135.52ZM143.533 176.92V135.4C143.533 129.76 142.573 127 140.773 127C138.973 127 138.133 129.76 138.133 135.4V176.92C138.133 182.68 138.973 185.44 140.773 185.44C142.573 185.44 143.533 182.68 143.533 176.92ZM190.015 135.52V176.92C190.015 190.24 184.855 196.6 175.495 196.6C165.775 196.6 160.495 189.52 160.495 176.56V135.76C160.495 122.8 165.775 115.84 175.495 115.84C184.855 115.84 190.015 122.2 190.015 135.52ZM178.015 176.92V135.4C178.015 129.76 177.055 127 175.255 127C173.455 127 172.615 129.76 172.615 135.4V176.92C172.615 182.68 173.455 185.44 175.255 185.44C177.055 185.44 178.015 182.68 178.015 176.92ZM224.496 135.52V176.92C224.496 190.24 219.336 196.6 209.976 196.6C200.256 196.6 194.976 189.52 194.976 176.56V135.76C194.976 122.8 200.256 115.84 209.976 115.84C219.336 115.84 224.496 122.2 224.496 135.52ZM212.496 176.92V135.4C212.496 129.76 211.536 127 209.736 127C207.936 127 207.096 129.76 207.096 135.4V176.92C207.096 182.68 207.936 185.44 209.736 185.44C211.536 185.44 212.496 182.68 212.496 176.92ZM228.402 213.88V207.28C231.882 205.36 233.562 202.48 233.562 198.76V196H228.402V184.24H240.282V197.08C240.282 206.92 236.082 212.44 228.402 213.88ZM273.654 135.52V176.92C273.654 190.24 268.494 196.6 259.134 196.6C249.414 196.6 244.134 189.52 244.134 176.56V135.76C244.134 122.8 249.414 115.84 259.134 115.84C268.494 115.84 273.654 122.2 273.654 135.52ZM261.654 176.92V135.4C261.654 129.76 260.694 127 258.894 127C257.094 127 256.254 129.76 256.254 135.4V176.92C256.254 182.68 257.094 185.44 258.894 185.44C260.694 185.44 261.654 182.68 261.654 176.92ZM308.135 135.52V176.92C308.135 190.24 302.975 196.6 293.615 196.6C283.895 196.6 278.615 189.52 278.615 176.56V135.76C278.615 122.8 283.895 115.84 293.615 115.84C302.975 115.84 308.135 122.2 308.135 135.52ZM296.135 176.92V135.4C296.135 129.76 295.175 127 293.375 127C291.575 127 290.735 129.76 290.735 135.4V176.92C290.735 182.68 291.575 185.44 293.375 185.44C295.175 185.44 296.135 182.68 296.135 176.92ZM342.616 135.52V176.92C342.616 190.24 337.456 196.6 328.096 196.6C318.376 196.6 313.096 189.52 313.096 176.56V135.76C313.096 122.8 318.376 115.84 328.096 115.84C337.456 115.84 342.616 122.2 342.616 135.52ZM330.616 176.92V135.4C330.616 129.76 329.656 127 327.856 127C326.056 127 325.216 129.76 325.216 135.4V176.92C325.216 182.68 326.056 185.44 327.856 185.44C329.656 185.44 330.616 182.68 330.616 176.92Z" fill="white"/>
<rect x="116" y="220" width="104" height="44" rx="4" fill="black"/>
<rect x="116" y="220" width="104" height="44" rx="4" stroke="#1B1818" stroke-width="2"/>
<path d="M132.913 236.62H136.657V247.5H132.913V236.62Z" fill="white"/>
<path d="M155.16 236.62H156.872V247.5H155.16V242.956H149.448V247.5H147.72V236.62H149.448V241.356H155.16V236.62ZM170.51 247.5L169.39 244.892H164.078L162.958 247.5H161.118L165.934 236.62H167.55L172.35 247.5H170.51ZM164.718 243.356H168.734L166.734 238.668L164.718 243.356ZM183.341 236.62H185.213L180.269 247.564H178.685L173.725 236.62H175.613L179.469 245.228L183.341 236.62ZM197.115 238.204H191.035V241.324H196.475V242.908H191.035V245.9H197.115V247.5H189.307V236.62H197.115V238.204ZM202.108 241.868C201.548 241.868 201.068 241.436 201.068 240.86C201.068 240.284 201.548 239.852 202.108 239.852C202.684 239.852 203.164 240.284 203.164 240.86C203.164 241.436 202.684 241.868 202.108 241.868ZM202.108 247.612C201.548 247.612 201.068 247.18 201.068 246.604C201.068 246.028 201.548 245.596 202.108 245.596C202.684 245.596 203.164 246.028 203.164 246.604C203.164 247.18 202.684 247.612 202.108 247.612Z" fill="#E9EBED"/>
<rect x="229" y="220" width="86" height="44" rx="4" fill="#F80000"/>
<path d="M257.134 233.68H261.982V250H258.214L251.398 242.296V250H246.574V233.68H250.342L257.134 241.528V233.68ZM271.419 240.712H280.419V250H276.915L276.795 248.488C275.547 249.688 273.915 250.336 271.947 250.336C266.667 250.336 263.043 246.808 263.043 241.912C263.043 236.944 266.715 233.344 271.899 233.344C276.411 233.344 279.867 235.936 280.251 239.632H275.235C274.683 238.192 273.459 237.616 271.995 237.616C269.523 237.616 267.963 239.44 267.963 241.768C267.963 244.168 269.643 245.968 272.259 245.968C273.651 245.968 274.971 245.392 275.907 244.168L271.419 244.12V240.712ZM292.573 233.68H297.421V250H293.653L286.837 242.296V250H282.013V233.68H285.781L292.573 241.528V233.68Z" fill="white"/>
<path d="M375.384 162.076C371.856 162.076 369 159.5 369 155.972C369 152.5 371.856 149.924 375.384 149.924C378.856 149.924 381.768 152.5 381.768 155.972C381.768 159.5 378.856 162.076 375.384 162.076Z" fill="#25292D"/>
<path d="M413.47 156.352L413.526 156.408L425.51 175H410.67L404.79 166.04L398.854 175H384.014L395.998 156.408L396.054 156.352L384.014 136.92H399.582L404.79 145.88L409.942 136.92H425.51L413.47 156.352Z" fill="#25292D"/>
<path d="M434.152 162.076C430.624 162.076 427.768 159.5 427.768 155.972C427.768 152.5 430.624 149.924 434.152 149.924C437.624 149.924 440.536 152.5 440.536 155.972C440.536 159.5 437.624 162.076 434.152 162.076Z" fill="#25292D"/>
</g>
<defs>
<clipPath id="clip0_85_116">
<rect width="800" height="400" fill="white"/>
</clipPath>
</defs>
</svg>
