<svg width="232" height="10" viewBox="0 0 232 10" fill="none" xmlns="http://www.w3.org/2000/svg">
<path d="M3.82201 0.0139992C5.69801 0.0139992 7.32201 0.839999 7.56001 2.8H6.45401C6.24401 1.666 5.44601 0.965999 3.89201 0.965999C2.49201 0.965999 1.58201 1.596 1.58201 2.674C1.58201 3.514 2.18401 3.99 3.31801 4.214L4.87201 4.508C6.58001 4.844 7.54601 5.614 7.54601 7.014C7.54601 8.75 6.11801 9.87 3.97601 9.87C1.69401 9.87 0.210011 8.708 1.11982e-05 6.65H1.09201C1.31601 8.078 2.33801 8.876 4.03201 8.876C5.48801 8.876 6.41201 8.218 6.41201 7.14C6.41201 6.384 5.89401 5.796 4.69001 5.586L2.91201 5.236C1.21801 4.914 0.406011 4.046 0.406011 2.744C0.406011 1.078 1.77801 0.0139992 3.82201 0.0139992ZM23.3621 0.182H24.5241L21.2761 9.772H20.1981L17.6081 2.156L15.0181 9.772H13.9401L10.6921 0.182H11.8541L14.4721 8.078L17.1321 0.182H18.0841L20.7301 8.064L23.3621 0.182ZM34.5007 9.702L33.3247 7.042H28.4107L27.2347 9.702H26.0447L30.3427 0.182H31.3927L35.6907 9.702H34.5007ZM28.8447 6.048H32.8767L30.8607 1.484L28.8447 6.048ZM42.9997 0.182C45.1977 0.182 46.6677 1.442 46.6677 3.346C46.6677 5.32 45.1417 6.622 42.8597 6.622H40.7457V9.702H39.6397V0.182H42.9997ZM42.9577 5.6C44.5257 5.6 45.5757 4.704 45.5757 3.346C45.5757 2.058 44.5257 1.19 42.9577 1.19H40.7457V5.6H42.9577ZM67.6172 0.182H70.1232L67.0012 9.758H64.7612L62.8432 3.92L60.9252 9.758H58.6852L55.5632 0.182H58.0692L59.8472 6.09L61.8632 0.182H63.8232L65.8392 6.09L67.6172 0.182ZM73.3372 0.182H75.7032V9.702H73.3372V0.182ZM87.4383 0.182V2.296H84.4003V9.702H82.0483V2.296H79.0103V0.182H87.4383ZM96.9947 0.182H99.3467V9.702H96.9947V6.132H93.1167V9.702H90.7507V0.182H93.1167V4.004H96.9947V0.182ZM119.384 0.182V9.702H117.018V4.928L114.904 8.19V8.204H113.588V8.19L111.46 4.9L111.474 9.702H109.108V0.182H110.872L114.246 5.264L117.62 0.182H119.384ZM130.493 2.24H125.663V3.976H129.891V5.992H125.663V7.644H130.493V9.702H123.297V0.182H130.493V2.24ZM144.214 -5.96046e-07C147.084 -5.96046e-07 149.254 2.17 149.254 4.942C149.254 7.714 147.084 9.884 144.214 9.884C141.344 9.884 139.174 7.714 139.174 4.942C139.174 2.17 141.344 -5.96046e-07 144.214 -5.96046e-07ZM144.214 7.672C145.754 7.672 146.86 6.44 146.86 4.942C146.86 3.444 145.754 2.212 144.214 2.212C142.674 2.212 141.568 3.444 141.568 4.942C141.568 6.44 142.674 7.672 144.214 7.672ZM159.343 0.182H161.695V9.702H159.875L155.311 4.48V9.702H152.945V0.182H154.751L159.343 5.544V0.182ZM178.606 9.702L177.962 8.064H173.93L173.3 9.702H170.78L174.826 0.182H177.094L181.126 9.702H178.606ZM174.7 6.09H177.192L175.946 2.884L174.7 6.09ZM190.684 9.702L188.136 6.146L186.736 7.77V9.702H184.37V0.182H186.736V4.55L190.53 0.182H193.33L189.704 4.354L193.638 9.702H190.684ZM203.949 9.702L203.305 8.064H199.273L198.643 9.702H196.123L200.169 0.182H202.437L206.469 9.702H203.949ZM200.043 6.09H202.535L201.289 2.884L200.043 6.09ZM218.449 9.702H215.691L213.885 6.944H213.871H212.079V9.702H209.713V0.182H213.871C216.237 0.182 217.819 1.47 217.819 3.528C217.819 4.774 217.217 5.782 216.209 6.37L218.449 9.702ZM212.079 2.268V4.816H213.829C214.739 4.816 215.453 4.312 215.453 3.528C215.453 2.758 214.739 2.268 213.829 2.268H212.079ZM228.923 9.702L228.279 8.064H224.247L223.617 9.702H221.097L225.143 0.182H227.411L231.443 9.702H228.923ZM225.017 6.09H227.509L226.263 2.884L225.017 6.09Z" fill="white"/>
</svg>
