<svg width="800" height="400" viewBox="0 0 800 400" fill="none" xmlns="http://www.w3.org/2000/svg">
<g clip-path="url(#clip0_97_329)">
<rect width="800" height="400" fill="black"/>
<path d="M201.903 314.234L196.051 279.124H93.4219L74.9666 314.234H-38.9159L139.785 6.34606H244.215L313.985 314.234H201.903ZM135.734 197.201H182.097L170.844 130.131L135.734 197.201ZM613.401 8.14657L479.263 140.935L563.887 314.234H440.552L392.388 226.459L353.227 265.17L344.675 314.234H239.345L293.36 8.14657H398.69L379.785 116.177L490.066 8.14657H613.401ZM814.324 104.024C814.324 149.487 791.368 190.449 750.856 215.656L799.92 314.234H673.434L641.925 242.213H612.216L599.613 314.234H494.283L548.298 8.14657H691.439C770.662 8.14657 814.324 41.4561 814.324 104.024ZM638.324 95.4715L628.421 150.387H666.232C688.738 150.387 705.393 135.983 705.393 118.428C705.393 104.024 694.14 95.4715 676.135 95.4715H638.324Z" fill="#5C6670" fill-opacity="0.13"/>
<rect y="373" width="800" height="6" fill="#9DFF1E"/>
<rect y="381" width="800" height="6" fill="white"/>
<rect y="389" width="800" height="6" fill="#F80000"/>
<path d="M310.213 33.48H311.431L307.049 43.07H306.013L301.631 33.48H302.849L306.531 41.586L310.213 33.48ZM321.919 34.502H316.361V37.764H321.359V38.786H316.361V41.978H321.919V43H315.255V33.48H321.919V34.502ZM332.613 43L329.841 39.598H327.419V43H326.313V33.48H329.911C332.053 33.48 333.551 34.656 333.551 36.532C333.551 38.044 332.585 39.108 331.101 39.458L333.985 43H332.613ZM327.419 34.502V38.576H329.883C331.367 38.576 332.459 37.806 332.459 36.532C332.459 35.258 331.367 34.502 329.883 34.502H327.419ZM337.878 33.48H338.984V43H337.878V33.48ZM350.347 34.502H344.915V38.002H349.759V39.024H344.915V43H343.809V33.48H350.347V34.502ZM354.389 33.48H355.495V43H354.389V33.48ZM364.87 42.146C366.606 42.146 367.866 41.138 368.258 39.598H369.406C368.958 41.74 367.208 43.182 364.87 43.182C362.126 43.182 359.914 41.054 359.914 38.24C359.914 35.426 362.126 33.312 364.87 33.312C367.208 33.312 368.958 34.74 369.406 36.882H368.258C367.866 35.328 366.606 34.348 364.87 34.348C362.714 34.348 361.034 36.014 361.034 38.24C361.034 40.466 362.714 42.146 364.87 42.146ZM380.771 43L379.595 40.34H374.681L373.505 43H372.315L376.613 33.48H377.663L381.961 43H380.771ZM375.115 39.346H379.147L377.131 34.782L375.115 39.346ZM391.876 33.48V34.502H388.362V43H387.256V34.502H383.756V33.48H391.876ZM395.669 33.48H396.775V43H395.669V33.48ZM406.151 33.312C408.895 33.312 411.107 35.496 411.107 38.24C411.107 40.984 408.895 43.168 406.151 43.168C403.407 43.168 401.195 40.984 401.195 38.24C401.195 35.496 403.407 33.312 406.151 33.312ZM406.151 42.132C408.307 42.132 409.987 40.396 409.987 38.24C409.987 36.084 408.307 34.348 406.151 34.348C403.995 34.348 402.315 36.084 402.315 38.24C402.315 40.396 403.995 42.132 406.151 42.132ZM422.558 33.48H423.664V43H422.74L416.65 35.496V43H415.544V33.48H416.44L422.558 41.082V33.48ZM437.932 33.298C439.472 33.298 441.768 33.872 442.006 36.434H439.626C439.5 35.72 439.066 35.23 438.058 35.23C437.218 35.23 436.672 35.552 436.672 36.168C436.672 36.714 437.064 36.952 437.82 37.106L439.15 37.386C440.9 37.75 442.02 38.464 442.02 40.102C442.02 42.006 440.452 43.182 438.072 43.182C435.93 43.182 433.998 42.16 433.774 39.808H436.154C436.308 40.648 437.022 41.18 438.142 41.18C438.982 41.18 439.486 40.858 439.486 40.326C439.486 39.99 439.304 39.64 438.478 39.486L436.91 39.15C435.034 38.744 434.152 37.89 434.152 36.378C434.152 34.474 435.692 33.298 437.932 33.298ZM453.282 33.48V35.594H450.244V43H447.892V35.594H444.854V33.48H453.282ZM462.299 43L461.655 41.362H457.623L456.993 43H454.473L458.519 33.48H460.787L464.819 43H462.299ZM458.393 39.388H460.885L459.639 36.182L458.393 39.388ZM474.428 33.48V35.594H471.39V43H469.038V35.594H466V33.48H474.428ZM486.449 33.48V38.562C486.449 41.516 484.741 43.182 482.011 43.182C479.295 43.182 477.587 41.516 477.587 38.562V33.48H479.967V38.604C479.967 40.06 480.765 40.97 482.011 40.97C483.257 40.97 484.069 40.06 484.069 38.604V33.48H486.449ZM493.976 33.298C495.516 33.298 497.812 33.872 498.05 36.434H495.67C495.544 35.72 495.11 35.23 494.102 35.23C493.262 35.23 492.716 35.552 492.716 36.168C492.716 36.714 493.108 36.952 493.864 37.106L495.194 37.386C496.944 37.75 498.064 38.464 498.064 40.102C498.064 42.006 496.496 43.182 494.116 43.182C491.974 43.182 490.042 42.16 489.818 39.808H492.198C492.352 40.648 493.066 41.18 494.186 41.18C495.026 41.18 495.53 40.858 495.53 40.326C495.53 39.99 495.348 39.64 494.522 39.486L492.954 39.15C491.078 38.744 490.196 37.89 490.196 36.378C490.196 34.474 491.736 33.298 493.976 33.298Z" fill="white"/>
<path d="M160.409 278.84H161.357V287H160.565L155.345 280.568V287H154.397V278.84H155.165L160.409 285.356V278.84ZM168.204 278.696C170.556 278.696 172.452 280.568 172.452 282.92C172.452 285.272 170.556 287.144 168.204 287.144C165.852 287.144 163.956 285.272 163.956 282.92C163.956 280.568 165.852 278.696 168.204 278.696ZM168.204 286.256C170.052 286.256 171.492 284.768 171.492 282.92C171.492 281.072 170.052 279.584 168.204 279.584C166.356 279.584 164.916 281.072 164.916 282.92C164.916 284.768 166.356 286.256 168.204 286.256ZM184.678 278.84H185.674L182.89 287.06H181.966L179.746 280.532L177.526 287.06H176.602L173.818 278.84H174.814L177.058 285.608L179.338 278.84H180.154L182.422 285.596L184.678 278.84ZM196.597 278.84H197.653L194.305 284.108V287H193.345V284.108L189.985 278.84H191.041L193.825 283.208L196.597 278.84ZM203.03 278.696C205.382 278.696 207.278 280.568 207.278 282.92C207.278 285.272 205.382 287.144 203.03 287.144C200.678 287.144 198.782 285.272 198.782 282.92C198.782 280.568 200.678 278.696 203.03 278.696ZM203.03 286.256C204.878 286.256 206.318 284.768 206.318 282.92C206.318 281.072 204.878 279.584 203.03 279.584C201.182 279.584 199.742 281.072 199.742 282.92C199.742 284.768 201.182 286.256 203.03 286.256ZM216.686 278.84V283.508C216.686 285.68 215.294 287.144 213.194 287.144C211.094 287.144 209.702 285.68 209.702 283.508V278.84H210.65V283.508C210.65 285.104 211.658 286.256 213.194 286.256C214.718 286.256 215.738 285.104 215.738 283.508V278.84H216.686ZM227.198 286.268C228.686 286.268 229.766 285.404 230.102 284.084H231.086C230.702 285.92 229.202 287.156 227.198 287.156C224.846 287.156 222.95 285.332 222.95 282.92C222.95 280.508 224.846 278.696 227.198 278.696C229.202 278.696 230.702 279.92 231.086 281.756H230.102C229.766 280.424 228.686 279.584 227.198 279.584C225.35 279.584 223.91 281.012 223.91 282.92C223.91 284.828 225.35 286.268 227.198 286.268ZM239.626 287L238.618 284.72H234.406L233.398 287H232.378L236.062 278.84H236.962L240.646 287H239.626ZM234.778 283.868H238.234L236.506 279.956L234.778 283.868ZM248.843 278.84H249.791V287H248.999L243.779 280.568V287H242.831V278.84H243.599L248.843 285.356V278.84ZM259.597 278.696C260.977 278.696 262.765 279.236 262.957 281.324H261.337C261.229 280.568 260.749 280.1 259.717 280.1C258.817 280.1 258.229 280.448 258.229 281.12C258.229 281.708 258.661 281.96 259.441 282.116L260.401 282.308C261.997 282.632 262.909 283.244 262.909 284.588C262.909 286.136 261.637 287.144 259.717 287.144C257.701 287.144 256.297 286.064 256.177 284.312H257.797C257.929 285.164 258.685 285.692 259.813 285.692C260.713 285.692 261.229 285.368 261.229 284.792C261.229 284.432 261.025 284.06 260.149 283.904L258.829 283.652C257.209 283.34 256.501 282.524 256.501 281.264C256.501 279.704 257.737 278.696 259.597 278.696ZM271.118 280.352H266.75V282.224H270.638V283.736H266.75V285.488H271.118V287H265.118V278.84H271.118V280.352ZM279.185 280.352H274.817V282.224H278.705V283.736H274.817V285.488H279.185V287H273.185V278.84H279.185V280.352ZM291.318 287L290.646 285.368H286.89L286.218 287H284.466L288.006 278.84H289.53L293.058 287H291.318ZM287.478 283.916H290.046L288.762 280.796L287.478 283.916ZM299.743 278.84H301.531L297.859 287.048H296.359L292.675 278.84H294.475L297.103 284.828L299.743 278.84ZM308.004 287L307.332 285.368H303.576L302.904 287H301.152L304.692 278.84H306.216L309.744 287H308.004ZM304.164 283.916H306.732L305.448 280.796L304.164 283.916ZM311.52 278.84H313.152V287H311.52V278.84ZM317.188 285.488H321.4V287H315.556V278.84H317.188V285.488ZM329.453 287L328.781 285.368H325.025L324.353 287H322.601L326.141 278.84H327.665L331.193 287H329.453ZM325.613 283.916H328.181L326.897 280.796L325.613 283.916ZM338.261 282.776C339.293 282.992 339.761 283.832 339.761 284.768C339.761 286.1 338.633 287 336.833 287H332.969V278.84H336.653C338.393 278.84 339.401 279.656 339.401 280.988C339.401 281.792 338.957 282.524 338.261 282.776ZM336.461 280.28H334.601V282.284H336.461C337.373 282.284 337.865 281.816 337.865 281.204C337.865 280.616 337.397 280.28 336.461 280.28ZM336.761 285.56C337.721 285.56 338.153 285.092 338.153 284.564C338.153 283.976 337.625 283.628 336.821 283.628H334.601V285.56H336.761ZM343.489 285.488H347.701V287H341.857V278.84H343.489V285.488ZM355.526 280.352H351.158V282.224H355.046V283.736H351.158V285.488H355.526V287H349.526V278.84H355.526V280.352ZM365.111 278.696C367.463 278.696 369.359 280.568 369.359 282.92C369.359 285.272 367.463 287.144 365.111 287.144C362.759 287.144 360.863 285.272 360.863 282.92C360.863 280.568 362.759 278.696 365.111 278.696ZM365.111 285.62C366.599 285.62 367.703 284.408 367.703 282.92C367.703 281.432 366.599 280.22 365.111 280.22C363.623 280.22 362.519 281.432 362.519 282.92C362.519 284.408 363.623 285.62 365.111 285.62ZM377.477 280.352H373.193V282.452H376.937V283.964H373.193V287H371.561V278.84H377.477V280.352ZM385.205 280.352H380.921V282.452H384.665V283.964H380.921V287H379.289V278.84H385.205V280.352ZM393.017 280.352H388.649V282.224H392.537V283.736H388.649V285.488H393.017V287H387.017V278.84H393.017V280.352ZM400.268 287L398.396 284.408H396.716V287H395.084V278.84H398.528C400.364 278.84 401.72 279.944 401.72 281.624C401.72 282.764 401.096 283.64 400.124 284.084L402.248 287H400.268ZM396.716 280.352V282.896H398.468C399.368 282.896 400.112 282.404 400.112 281.624C400.112 280.844 399.368 280.352 398.468 280.352H396.716ZM406.742 278.696C408.122 278.696 409.91 279.236 410.102 281.324H408.482C408.374 280.568 407.894 280.1 406.862 280.1C405.962 280.1 405.374 280.448 405.374 281.12C405.374 281.708 405.806 281.96 406.586 282.116L407.546 282.308C409.142 282.632 410.054 283.244 410.054 284.588C410.054 286.136 408.782 287.144 406.862 287.144C404.846 287.144 403.442 286.064 403.322 284.312H404.942C405.074 285.164 405.83 285.692 406.958 285.692C407.858 285.692 408.374 285.368 408.374 284.792C408.374 284.432 408.17 284.06 407.294 283.904L405.974 283.652C404.354 283.34 403.646 282.524 403.646 281.264C403.646 279.704 404.882 278.696 406.742 278.696ZM411.961 288.536L412.549 286.988C412.297 286.892 412.165 286.712 412.165 286.484C412.165 286.148 412.429 285.896 412.765 285.896C413.113 285.896 413.377 286.148 413.377 286.484C413.377 286.616 413.377 286.7 413.185 287.072L412.537 288.536H411.961ZM423.375 286.268C424.863 286.268 425.943 285.404 426.279 284.084H427.263C426.879 285.92 425.379 287.156 423.375 287.156C421.023 287.156 419.127 285.332 419.127 282.92C419.127 280.508 421.023 278.696 423.375 278.696C425.379 278.696 426.879 279.92 427.263 281.756H426.279C425.943 280.424 424.863 279.584 423.375 279.584C421.527 279.584 420.087 281.012 420.087 282.92C420.087 284.828 421.527 286.268 423.375 286.268ZM435.263 287L432.887 284.084H430.811V287H429.863V278.84H432.947C434.783 278.84 436.067 279.848 436.067 281.456C436.067 282.752 435.239 283.664 433.967 283.964L436.439 287H435.263ZM430.811 279.716V283.208H432.923C434.195 283.208 435.131 282.548 435.131 281.456C435.131 280.364 434.195 279.716 432.923 279.716H430.811ZM444.287 279.716H439.523V282.512H443.807V283.388H439.523V286.124H444.287V287H438.575V278.84H444.287V279.716ZM453.333 287L452.325 284.72H448.113L447.105 287H446.085L449.769 278.84H450.669L454.353 287H453.333ZM448.485 283.868H451.941L450.213 279.956L448.485 283.868ZM461.652 278.84V279.716H458.64V287H457.692V279.716H454.692V278.84H461.652ZM469.415 279.716H464.651V282.512H468.935V283.388H464.651V286.124H469.415V287H463.703V278.84H469.415V279.716ZM480.769 278.84H481.825L478.477 284.108V287H477.517V284.108L474.157 278.84H475.213L477.997 283.208L480.769 278.84ZM487.201 278.696C489.553 278.696 491.449 280.568 491.449 282.92C491.449 285.272 489.553 287.144 487.201 287.144C484.849 287.144 482.953 285.272 482.953 282.92C482.953 280.568 484.849 278.696 487.201 278.696ZM487.201 286.256C489.049 286.256 490.489 284.768 490.489 282.92C490.489 281.072 489.049 279.584 487.201 279.584C485.353 279.584 483.913 281.072 483.913 282.92C483.913 284.768 485.353 286.256 487.201 286.256ZM500.858 278.84V283.508C500.858 285.68 499.466 287.144 497.366 287.144C495.266 287.144 493.874 285.68 493.874 283.508V278.84H494.822V283.508C494.822 285.104 495.83 286.256 497.366 286.256C498.89 286.256 499.91 285.104 499.91 283.508V278.84H500.858ZM509.09 287L506.714 284.084H504.638V287H503.69V278.84H506.774C508.61 278.84 509.894 279.848 509.894 281.456C509.894 282.752 509.066 283.664 507.794 283.964L510.266 287H509.09ZM504.638 279.716V283.208H506.75C508.022 283.208 508.958 282.548 508.958 281.456C508.958 280.364 508.022 279.716 506.75 279.716H504.638ZM520.198 278.696C522.55 278.696 524.446 280.568 524.446 282.92C524.446 285.272 522.55 287.144 520.198 287.144C517.846 287.144 515.95 285.272 515.95 282.92C515.95 280.568 517.846 278.696 520.198 278.696ZM520.198 286.256C522.046 286.256 523.486 284.768 523.486 282.92C523.486 281.072 522.046 279.584 520.198 279.584C518.35 279.584 516.91 281.072 516.91 282.92C516.91 284.768 518.35 286.256 520.198 286.256ZM536.672 278.84H537.668L534.884 287.06H533.96L531.74 280.532L529.52 287.06H528.596L525.812 278.84H526.808L529.052 285.608L531.332 278.84H532.148L534.416 285.596L536.672 278.84ZM545.817 278.84H546.765V287H545.973L540.753 280.568V287H539.805V278.84H540.573L545.817 285.356V278.84ZM560.758 287H558.394L556.846 284.636H556.834H555.298V287H553.27V278.84H556.834C558.862 278.84 560.218 279.944 560.218 281.708C560.218 282.776 559.702 283.64 558.838 284.144L560.758 287ZM555.298 280.628V282.812H556.798C557.578 282.812 558.19 282.38 558.19 281.708C558.19 281.048 557.578 280.628 556.798 280.628H555.298ZM568.537 287L567.985 285.596H564.529L563.989 287H561.829L565.297 278.84H567.241L570.697 287H568.537ZM565.189 283.904H567.325L566.257 281.156L565.189 283.904ZM577.733 278.84V280.652H575.129V287H573.113V280.652H570.509V278.84H577.733ZM585.54 280.604H581.4V282.092H585.024V283.82H581.4V285.236H585.54V287H579.372V278.84H585.54V280.604ZM593.246 285.188H597.278V287H591.218V278.84H593.246V285.188ZM598.958 278.84H600.986V287H598.958V278.84ZM606.47 278.684C607.79 278.684 609.758 279.176 609.962 281.372H607.922C607.814 280.76 607.442 280.34 606.578 280.34C605.858 280.34 605.39 280.616 605.39 281.144C605.39 281.612 605.726 281.816 606.374 281.948L607.514 282.188C609.014 282.5 609.974 283.112 609.974 284.516C609.974 286.148 608.63 287.156 606.59 287.156C604.754 287.156 603.098 286.28 602.906 284.264H604.946C605.078 284.984 605.69 285.44 606.65 285.44C607.37 285.44 607.802 285.164 607.802 284.708C607.802 284.42 607.646 284.12 606.938 283.988L605.594 283.7C603.986 283.352 603.23 282.62 603.23 281.324C603.23 279.692 604.55 278.684 606.47 278.684ZM618.428 278.84V280.652H615.824V287H613.808V280.652H611.204V278.84H618.428ZM620.067 278.84H622.095V287H620.067V278.84ZM629.74 278.84H631.756V287H630.196L626.284 282.524V287H624.256V278.84H625.804L629.74 283.436V278.84ZM637.877 282.416H642.245V287H640.733L640.649 286.004C640.061 286.724 639.209 287.156 638.069 287.156C635.513 287.156 633.725 285.344 633.725 283.004C633.725 280.46 635.597 278.684 638.081 278.684C640.085 278.684 641.813 279.8 642.161 281.744H640.025C639.677 280.796 638.861 280.52 638.129 280.52C636.725 280.52 635.777 281.516 635.777 282.956C635.777 284.24 636.701 285.308 638.141 285.308C639.089 285.308 639.809 284.828 640.217 284.036L637.877 284.012V282.416ZM644.1 288.536L644.688 286.988C644.436 286.892 644.304 286.712 644.304 286.484C644.304 286.148 644.568 285.896 644.904 285.896C645.252 285.896 645.516 286.148 645.516 286.484C645.516 286.616 645.516 286.7 645.324 287.072L644.676 288.536H644.1ZM170.56 299.696C172.168 299.696 173.56 300.404 173.764 302.084H172.816C172.636 301.112 171.952 300.512 170.62 300.512C169.42 300.512 168.64 301.052 168.64 301.976C168.64 302.696 169.156 303.104 170.128 303.296L171.46 303.548C172.924 303.836 173.752 304.496 173.752 305.696C173.752 307.184 172.528 308.144 170.692 308.144C168.736 308.144 167.464 307.148 167.284 305.384H168.22C168.412 306.608 169.288 307.292 170.74 307.292C171.988 307.292 172.78 306.728 172.78 305.804C172.78 305.156 172.336 304.652 171.304 304.472L169.78 304.172C168.328 303.896 167.632 303.152 167.632 302.036C167.632 300.608 168.808 299.696 170.56 299.696ZM182.023 300.716H177.259V303.512H181.543V304.388H177.259V307.124H182.023V308H176.311V299.84H182.023V300.716ZM190.5 299.84V300.716H187.488V308H186.54V300.716H183.54V299.84H190.5ZM203.487 299.84V304.508C203.487 306.68 202.095 308.144 199.995 308.144C197.895 308.144 196.503 306.68 196.503 304.508V299.84H197.451V304.508C197.451 306.104 198.459 307.256 199.995 307.256C201.519 307.256 202.539 306.104 202.539 304.508V299.84H203.487ZM209.2 299.84C211.084 299.84 212.344 300.92 212.344 302.552C212.344 304.244 211.036 305.36 209.08 305.36H207.268V308H206.32V299.84H209.2ZM209.164 304.484C210.508 304.484 211.408 303.716 211.408 302.552C211.408 301.448 210.508 300.704 209.164 300.704H207.268V304.484H209.164ZM225.044 308L224.036 305.72H219.824L218.816 308H217.796L221.48 299.84H222.38L226.064 308H225.044ZM220.196 304.868H223.652L221.924 300.956L220.196 304.868ZM235.096 299.84C237.232 299.84 238.552 300.992 238.552 302.828C238.552 304.736 237.16 305.924 234.94 305.924H233.836V308H231.808V299.84H235.096ZM235.06 304.148C235.948 304.148 236.536 303.632 236.536 302.828C236.536 302.096 235.948 301.616 235.06 301.616H233.836V304.148H235.06ZM245.269 308L244.717 306.596H241.261L240.721 308H238.561L242.029 299.84H243.973L247.429 308H245.269ZM241.921 304.904H244.057L242.989 302.156L241.921 304.904ZM253.008 299.84H255.252L252.036 305.54V308H249.996V305.54L246.768 299.84H249.012L251.004 303.392L253.008 299.84ZM260.08 299.684C262.54 299.684 264.4 301.544 264.4 303.92C264.4 306.296 262.54 308.156 260.08 308.156C257.62 308.156 255.76 306.296 255.76 303.92C255.76 301.544 257.62 299.684 260.08 299.684ZM260.08 306.26C261.4 306.26 262.348 305.204 262.348 303.92C262.348 302.636 261.4 301.58 260.08 301.58C258.76 301.58 257.812 302.636 257.812 303.92C257.812 305.204 258.76 306.26 260.08 306.26ZM273.757 299.84V304.196C273.757 306.728 272.293 308.156 269.953 308.156C267.625 308.156 266.161 306.728 266.161 304.196V299.84H268.201V304.232C268.201 305.48 268.885 306.26 269.953 306.26C271.021 306.26 271.717 305.48 271.717 304.232V299.84H273.757ZM282.488 299.84V301.652H279.884V308H277.868V301.652H275.264V299.84H282.488ZM294.144 308L293.592 306.596H290.136L289.596 308H287.436L290.904 299.84H292.848L296.304 308H294.144ZM290.796 304.904H292.932L291.864 302.156L290.796 304.904ZM301.344 306.26C302.424 306.26 303.144 305.636 303.36 304.616H305.448C305.184 306.728 303.576 308.156 301.356 308.156C298.896 308.156 297.036 306.38 297.036 303.92C297.036 301.46 298.896 299.684 301.356 299.684C303.576 299.684 305.184 301.112 305.448 303.224H303.36C303.144 302.204 302.424 301.58 301.344 301.58C300.012 301.58 299.088 302.564 299.088 303.92C299.088 305.276 300.012 306.26 301.344 306.26ZM311.532 306.26C312.612 306.26 313.332 305.636 313.548 304.616H315.636C315.372 306.728 313.764 308.156 311.544 308.156C309.084 308.156 307.224 306.38 307.224 303.92C307.224 301.46 309.084 299.684 311.544 299.684C313.764 299.684 315.372 301.112 315.636 303.224H313.548C313.332 302.204 312.612 301.58 311.532 301.58C310.2 301.58 309.276 302.564 309.276 303.92C309.276 305.276 310.2 306.26 311.532 306.26ZM321.733 299.684C324.193 299.684 326.053 301.544 326.053 303.92C326.053 306.296 324.193 308.156 321.733 308.156C319.273 308.156 317.413 306.296 317.413 303.92C317.413 301.544 319.273 299.684 321.733 299.684ZM321.733 306.26C323.053 306.26 324.001 305.204 324.001 303.92C324.001 302.636 323.053 301.58 321.733 301.58C320.413 301.58 319.465 302.636 319.465 303.92C319.465 305.204 320.413 306.26 321.733 306.26ZM335.411 299.84V304.196C335.411 306.728 333.947 308.156 331.607 308.156C329.279 308.156 327.815 306.728 327.815 304.196V299.84H329.855V304.232C329.855 305.48 330.539 306.26 331.607 306.26C332.675 306.26 333.371 305.48 333.371 304.232V299.84H335.411ZM342.939 299.84H344.955V308H343.395L339.483 303.524V308H337.455V299.84H339.003L342.939 304.436V299.84ZM353.815 299.84V301.652H351.211V308H349.195V301.652H346.591V299.84H353.815ZM366.366 308L365.358 305.72H361.146L360.138 308H359.118L362.802 299.84H363.702L367.386 308H366.366ZM361.518 304.868H364.974L363.246 300.956L361.518 304.868ZM375.583 299.84H376.531V308H375.739L370.519 301.568V308H369.571V299.84H370.339L375.583 306.356V299.84ZM382.347 299.84C384.867 299.84 386.655 301.508 386.655 303.86C386.655 306.284 384.867 308 382.347 308H379.479V299.84H382.347ZM382.347 307.124C384.291 307.124 385.683 305.768 385.683 303.86C385.683 302.036 384.291 300.716 382.347 300.716H380.427V307.124H382.347ZM398.924 300.716H394.16V303.512H398.444V304.388H394.16V307.124H398.924V308H393.212V299.84H398.924V300.716ZM407.502 299.84H408.45V308H407.658L402.438 301.568V308H401.49V299.84H402.258L407.502 306.356V299.84ZM416.426 299.84V305.048C416.426 307.028 415.262 308.144 413.45 308.144C411.854 308.144 410.702 307.196 410.522 305.624H411.482C411.626 306.668 412.406 307.256 413.51 307.256C414.662 307.256 415.466 306.452 415.466 305.024V299.84H416.426ZM423.037 299.696C425.389 299.696 427.285 301.568 427.285 303.92C427.285 306.272 425.389 308.144 423.037 308.144C420.685 308.144 418.789 306.272 418.789 303.92C418.789 301.568 420.685 299.696 423.037 299.696ZM423.037 307.256C424.885 307.256 426.325 305.768 426.325 303.92C426.325 302.072 424.885 300.584 423.037 300.584C421.189 300.584 419.749 302.072 419.749 303.92C419.749 305.768 421.189 307.256 423.037 307.256ZM434.908 299.84H435.964L432.616 305.108V308H431.656V305.108L428.296 299.84H429.352L432.136 304.208L434.908 299.84ZM447.082 303.8C448.078 304.016 448.57 304.856 448.57 305.732C448.57 307.088 447.478 308 445.642 308H441.538V299.84H445.402C447.178 299.84 448.21 300.68 448.21 302.012C448.21 302.768 447.79 303.548 447.082 303.8ZM445.09 301.496H443.566V303.2H445.09C445.858 303.2 446.278 302.816 446.278 302.288C446.278 301.772 445.87 301.496 445.09 301.496ZM445.378 306.32C446.218 306.32 446.59 305.948 446.59 305.468C446.59 304.964 446.17 304.676 445.414 304.676H443.566V306.32H445.378ZM454.32 299.684C456.78 299.684 458.64 301.544 458.64 303.92C458.64 306.296 456.78 308.156 454.32 308.156C451.86 308.156 450 306.296 450 303.92C450 301.544 451.86 299.684 454.32 299.684ZM454.32 306.26C455.64 306.26 456.588 305.204 456.588 303.92C456.588 302.636 455.64 301.58 454.32 301.58C453 301.58 452.052 302.636 452.052 303.92C452.052 305.204 453 306.26 454.32 306.26ZM468.091 308H465.727L464.179 305.636H464.167H462.631V308H460.603V299.84H464.167C466.195 299.84 467.551 300.944 467.551 302.708C467.551 303.776 467.035 304.64 466.171 305.144L468.091 308ZM462.631 301.628V303.812H464.131C464.911 303.812 465.523 303.38 465.523 302.708C465.523 302.048 464.911 301.628 464.131 301.628H462.631ZM472.861 299.84C475.429 299.84 477.265 301.508 477.265 303.896C477.265 306.32 475.429 308 472.861 308H469.585V299.84H472.861ZM472.861 306.176C474.193 306.176 475.213 305.192 475.213 303.896C475.213 302.636 474.193 301.664 472.861 301.664H471.613V306.176H472.861ZM485.402 301.604H481.262V303.092H484.886V304.82H481.262V306.236H485.402V308H479.234V299.84H485.402V301.604ZM494.767 308H492.403L490.855 305.636H490.843H489.307V308H487.279V299.84H490.843C492.871 299.84 494.227 300.944 494.227 302.708C494.227 303.776 493.711 304.64 492.847 305.144L494.767 308ZM489.307 301.628V303.812H490.807C491.587 303.812 492.199 303.38 492.199 302.708C492.199 302.048 491.587 301.628 490.807 301.628H489.307ZM498.288 306.188H502.32V308H496.26V299.84H498.288V306.188ZM510.168 301.604H506.028V303.092H509.652V304.82H506.028V306.236H510.168V308H504V299.84H510.168V301.604ZM515.216 299.684C516.536 299.684 518.504 300.176 518.708 302.372H516.668C516.56 301.76 516.188 301.34 515.324 301.34C514.604 301.34 514.136 301.616 514.136 302.144C514.136 302.612 514.472 302.816 515.12 302.948L516.26 303.188C517.76 303.5 518.72 304.112 518.72 305.516C518.72 307.148 517.376 308.156 515.336 308.156C513.5 308.156 511.844 307.28 511.652 305.264H513.692C513.824 305.984 514.436 306.44 515.396 306.44C516.116 306.44 516.548 306.164 516.548 305.708C516.548 305.42 516.392 305.12 515.684 304.988L514.34 304.7C512.732 304.352 511.976 303.62 511.976 302.324C511.976 300.692 513.296 299.684 515.216 299.684ZM523.682 299.684C525.002 299.684 526.97 300.176 527.174 302.372H525.134C525.026 301.76 524.654 301.34 523.79 301.34C523.07 301.34 522.602 301.616 522.602 302.144C522.602 302.612 522.938 302.816 523.586 302.948L524.726 303.188C526.226 303.5 527.186 304.112 527.186 305.516C527.186 307.148 525.842 308.156 523.802 308.156C521.966 308.156 520.31 307.28 520.118 305.264H522.158C522.29 305.984 522.902 306.44 523.862 306.44C524.582 306.44 525.014 306.164 525.014 305.708C525.014 305.42 524.858 305.12 524.15 304.988L522.806 304.7C521.198 304.352 520.442 303.62 520.442 302.324C520.442 300.692 521.762 299.684 523.682 299.684ZM536.66 306.26C537.74 306.26 538.46 305.636 538.676 304.616H540.764C540.5 306.728 538.892 308.156 536.672 308.156C534.212 308.156 532.352 306.38 532.352 303.92C532.352 301.46 534.212 299.684 536.672 299.684C538.892 299.684 540.5 301.112 540.764 303.224H538.676C538.46 302.204 537.74 301.58 536.66 301.58C535.328 301.58 534.404 302.564 534.404 303.92C534.404 305.276 535.328 306.26 536.66 306.26ZM546.861 299.684C549.321 299.684 551.181 301.544 551.181 303.92C551.181 306.296 549.321 308.156 546.861 308.156C544.401 308.156 542.541 306.296 542.541 303.92C542.541 301.544 544.401 299.684 546.861 299.684ZM546.861 306.26C548.181 306.26 549.129 305.204 549.129 303.92C549.129 302.636 548.181 301.58 546.861 301.58C545.541 301.58 544.593 302.636 544.593 303.92C544.593 305.204 545.541 306.26 546.861 306.26ZM558.628 299.84H560.644V308H559.084L555.172 303.524V308H553.144V299.84H554.692L558.628 304.436V299.84ZM569.094 299.84H571.326L567.798 308.048H565.746L562.206 299.84H564.438L566.766 305.372L569.094 299.84ZM578.975 301.604H574.835V303.092H578.459V304.82H574.835V306.236H578.975V308H572.807V299.84H578.975V301.604ZM588.339 308H585.975L584.427 305.636H584.415H582.879V308H580.851V299.84H584.415C586.443 299.84 587.799 300.944 587.799 302.708C587.799 303.776 587.283 304.64 586.419 305.144L588.339 308ZM582.879 301.628V303.812H584.379C585.159 303.812 585.771 303.38 585.771 302.708C585.771 302.048 585.159 301.628 584.379 301.628H582.879ZM592.77 299.684C594.09 299.684 596.058 300.176 596.262 302.372H594.222C594.114 301.76 593.742 301.34 592.878 301.34C592.158 301.34 591.69 301.616 591.69 302.144C591.69 302.612 592.026 302.816 592.674 302.948L593.814 303.188C595.314 303.5 596.274 304.112 596.274 305.516C596.274 307.148 594.93 308.156 592.89 308.156C591.054 308.156 589.398 307.28 589.206 305.264H591.246C591.378 305.984 591.99 306.44 592.95 306.44C593.67 306.44 594.102 306.164 594.102 305.708C594.102 305.42 593.946 305.12 593.238 304.988L591.894 304.7C590.286 304.352 589.53 303.62 589.53 302.324C589.53 300.692 590.85 299.684 592.77 299.684ZM598.217 299.84H600.245V308H598.217V299.84ZM606.534 299.684C608.994 299.684 610.854 301.544 610.854 303.92C610.854 306.296 608.994 308.156 606.534 308.156C604.074 308.156 602.214 306.296 602.214 303.92C602.214 301.544 604.074 299.684 606.534 299.684ZM606.534 306.26C607.854 306.26 608.802 305.204 608.802 303.92C608.802 302.636 607.854 301.58 606.534 301.58C605.214 301.58 604.266 302.636 604.266 303.92C604.266 305.204 605.214 306.26 606.534 306.26ZM618.301 299.84H620.317V308H618.757L614.845 303.524V308H612.817V299.84H614.365L618.301 304.436V299.84ZM625.802 299.684C627.122 299.684 629.09 300.176 629.294 302.372H627.254C627.146 301.76 626.774 301.34 625.91 301.34C625.19 301.34 624.722 301.616 624.722 302.144C624.722 302.612 625.058 302.816 625.706 302.948L626.846 303.188C628.346 303.5 629.306 304.112 629.306 305.516C629.306 307.148 627.962 308.156 625.922 308.156C624.086 308.156 622.43 307.28 622.238 305.264H624.278C624.41 305.984 625.022 306.44 625.982 306.44C626.702 306.44 627.134 306.164 627.134 305.708C627.134 305.42 626.978 305.12 626.27 304.988L624.926 304.7C623.318 304.352 622.562 303.62 622.562 302.324C622.562 300.692 623.882 299.684 625.802 299.684ZM631.992 308.096C631.404 308.096 630.912 307.652 630.912 307.04C630.912 306.452 631.404 306.008 631.992 306.008C632.592 306.008 633.096 306.452 633.096 307.04C633.096 307.652 632.592 308.096 631.992 308.096Z" fill="white"/>
<path d="M218.383 159.4H249.463L216.943 241.48H185.503L152.983 159.4H184.063L201.223 204.4L218.383 159.4ZM268.315 179.2C290.395 179.2 303.835 193.12 301.195 215.44H258.475C259.795 220.36 263.515 224.2 269.275 224.2C273.715 224.2 275.635 223 276.955 221.44H301.075C298.435 233.92 286.555 242.8 270.715 242.8C250.075 242.8 236.275 229.72 236.275 210.76C236.275 191.8 249.115 179.2 268.315 179.2ZM269.275 195.52C264.355 195.52 260.395 197.8 258.835 203.44H279.235C278.155 197.92 274.795 195.52 269.275 195.52ZM349.927 180.04V205.72C339.367 205.72 334.207 207.88 330.367 210.64V241H303.367V181H330.367V186.76C335.407 182.8 341.047 180.04 349.927 180.04ZM366.77 175.84C358.49 175.84 351.77 169.72 351.77 161.44C351.77 153.16 358.49 147.04 366.77 147.04C374.93 147.04 381.77 153.16 381.77 161.44C381.77 169.72 374.93 175.84 366.77 175.84ZM353.33 181H380.33V241H353.33V181ZM469.02 181V241H442.02V204.4H419.58V241H392.7V204.4H381.78V181H392.7V180.52C392.7 160.48 405.54 150.88 421.14 150.88C427.02 150.88 431.58 151.6 440.22 153.76L436.74 174.88C433.98 174.28 430.5 173.8 426.78 173.8C422.46 173.8 419.58 176.44 419.58 180.52V181H469.02ZM503.412 179.2C525.492 179.2 538.932 193.12 536.292 215.44H493.572C494.892 220.36 498.612 224.2 504.372 224.2C508.812 224.2 510.732 223 512.052 221.44H536.172C533.532 233.92 521.652 242.8 505.812 242.8C485.172 242.8 471.372 229.72 471.372 210.76C471.372 191.8 484.212 179.2 503.412 179.2ZM504.372 195.52C499.452 195.52 495.492 197.8 493.932 203.44H514.332C513.252 197.92 509.892 195.52 504.372 195.52ZM581.05 155.8H608.05V241H581.05V239.08C576.85 241.36 572.65 242.8 566.29 242.8C550.69 242.8 536.65 230.2 536.65 211.36C536.65 192.52 550.69 179.92 566.29 179.92C572.65 179.92 576.85 181.36 581.05 183.64V155.8ZM573.13 222.28C575.53 222.28 578.17 221.8 581.05 219.64V203.08C578.17 200.92 575.53 200.44 573.13 200.44C567.37 200.44 562.33 204.4 562.33 211.36C562.33 218.32 567.37 222.28 573.13 222.28ZM640.963 159.4L638.563 213.4H615.283L612.883 159.4H640.963ZM626.923 241.96C620.083 241.96 614.443 236.92 614.443 230.08C614.443 223.36 620.083 218.32 626.923 218.32C633.643 218.32 639.403 223.36 639.403 230.08C639.403 236.92 633.643 241.96 626.923 241.96Z" fill="white"/>
<rect x="478" y="133" width="122" height="40" rx="4" fill="#E8F500"/>
<rect x="478" y="133" width="122" height="40" rx="4" stroke="black" stroke-width="4"/>
<path d="M507.773 146.76L502.967 155.67L502.985 159H499.349L499.331 155.67L494.525 146.76H498.539L501.131 151.584L503.759 146.76H507.773ZM510.281 149.892C513.197 149.892 515.303 151.854 515.303 154.59C515.303 157.308 513.197 159.252 510.281 159.252C507.347 159.252 505.259 157.308 505.259 154.59C505.259 151.854 507.347 149.892 510.281 149.892ZM510.281 156.534C511.397 156.534 512.189 155.724 512.189 154.59C512.189 153.438 511.397 152.61 510.281 152.61C509.165 152.61 508.355 153.438 508.355 154.59C508.355 155.724 509.165 156.534 510.281 156.534ZM521.683 150.144H525.175V159H521.683V158.46C520.999 158.982 520.279 159.252 519.379 159.252C517.255 159.252 515.743 157.866 515.743 155.418V150.144H519.235V154.644C519.235 155.724 519.793 156.12 520.477 156.12C520.909 156.12 521.287 155.94 521.683 155.544V150.144ZM525.755 150.972L526.745 148.812C526.079 148.506 525.755 147.948 525.755 147.336C525.755 146.382 526.565 145.626 527.573 145.626C528.581 145.626 529.409 146.364 529.409 147.372C529.409 147.804 529.373 148.092 528.761 149.082L527.591 150.972H525.755ZM535.866 150V153.312C534.354 153.33 533.526 153.69 532.896 154.212V159H529.422V150.144H532.896V151.044C533.67 150.414 534.552 150 535.866 150ZM540.493 149.892C543.679 149.892 545.623 152.016 545.209 155.238H538.819C539.017 156.066 539.593 156.696 540.637 156.696C541.285 156.696 541.627 156.552 541.861 156.264H545.137C544.687 158.046 542.995 159.252 540.781 159.252C537.793 159.252 535.813 157.29 535.813 154.554C535.813 151.8 537.685 149.892 540.493 149.892ZM540.583 152.178C539.701 152.178 539.125 152.628 538.873 153.51H542.221C542.077 152.592 541.519 152.178 540.583 152.178ZM555.505 149.892C557.647 149.892 559.159 151.26 559.159 153.708V159H555.667V154.464C555.667 153.384 555.091 153.006 554.425 153.006C553.993 153.006 553.597 153.186 553.201 153.582V159H549.727V150.144H553.201V150.666C553.903 150.144 554.623 149.892 555.505 149.892ZM564.708 149.892C567.624 149.892 569.73 151.854 569.73 154.59C569.73 157.308 567.624 159.252 564.708 159.252C561.774 159.252 559.686 157.308 559.686 154.59C559.686 151.854 561.774 149.892 564.708 149.892ZM564.708 156.534C565.824 156.534 566.616 155.724 566.616 154.59C566.616 153.438 565.824 152.61 564.708 152.61C563.592 152.61 562.782 153.438 562.782 154.59C562.782 155.724 563.592 156.534 564.708 156.534ZM579.9 150.144H583.446L580.71 159H577.596L576.246 154.302L574.896 159H571.782L569.046 150.144H572.592L573.582 154.842L574.932 150.144H577.56L578.928 154.842L579.9 150.144Z" fill="black"/>
<rect x="128.5" y="14.5" width="53.8208" height="55" rx="26.9104" stroke="#2A2828"/>
<path d="M155.383 26C155.952 26.0165 156.385 26.0854 156.91 26.3324C157.435 26.5728 157.886 26.9491 158.217 27.4224C158.443 27.7499 158.716 28.2769 158.92 28.6423C159.309 29.3463 159.702 30.0483 160.099 30.7483L164.657 38.8863C165.834 40.9548 166.996 43.0319 168.143 45.1174C168.486 45.7375 169.379 47.2377 169.59 47.8359C169.949 48.8611 169.887 49.9867 169.419 50.9666C168.467 52.9073 166.211 53.7867 164.243 52.8227C163.573 52.4943 162.864 52.1799 162.185 51.8625L158.547 50.1693C158.23 50.023 157.533 49.6486 157.174 49.6716C157.107 49.6761 156.994 49.7714 156.959 49.8277C156.594 50.419 156.24 51.0539 155.894 51.6554L153.825 55.2018C153.162 56.3434 152.739 57.3901 151.389 57.8401C150.62 58.1039 149.777 58.0393 149.057 57.661C148.372 57.3085 147.857 56.6959 147.627 55.9602C147.376 55.1387 147.462 54.3837 147.857 53.6298C149.354 51.1737 150.731 48.6105 152.218 46.1449C152.567 45.5667 152.871 44.9327 153.306 44.4146C153.667 43.988 154.122 43.6517 154.635 43.4317C156.649 42.5547 158.251 43.7677 160.054 44.5533C160.553 44.7709 161.027 45.0268 161.535 45.23C161.323 44.7653 160.968 44.1709 160.71 43.7136L159.283 41.177C158.848 40.401 155.692 34.6598 155.455 34.5455C155.131 34.6028 154.744 35.4287 154.575 35.7215L153.291 37.9428C153.032 38.3925 152.545 39.3956 152.082 39.5561C151.619 39.7162 150.682 39.6792 150.185 39.6758C148.868 39.6591 147.528 39.7086 146.214 39.6582C145.673 39.6375 145.723 39.0223 145.927 38.6795C146.417 37.8576 146.905 37.0226 147.387 36.1978C148.45 34.3684 149.524 32.545 150.608 30.7275L151.843 28.621C152.775 27.0294 153.362 26.1122 155.383 26Z" fill="white"/>
<path d="M147.598 41.5295C148.158 41.4615 150.806 41.4259 151.19 41.6171C151.298 41.6708 151.345 41.7354 151.383 41.8484C151.443 42.0305 151.405 42.1617 151.315 42.326C150.294 44.1878 149.118 46.0338 148.027 47.8593L146.994 49.5873C146.366 50.6378 146.016 51.1732 144.783 51.5402C144.633 51.5711 144.412 51.6078 144.261 51.6214C143.477 51.6875 142.698 51.4446 142.092 50.9443C141.467 50.4228 141.077 49.6735 141.008 48.8629C140.919 47.8842 141.622 45.9654 142.073 45.1174C142.322 44.6473 142.621 44.2056 142.964 43.7998C144.134 42.4288 145.821 41.6784 147.598 41.5295Z" fill="white"/>
</g>
<defs>
<clipPath id="clip0_97_329">
<rect width="800" height="400" fill="white"/>
</clipPath>
</defs>
</svg>
