<svg width="90" height="48" viewBox="0 0 90 48" fill="none" xmlns="http://www.w3.org/2000/svg">
<rect x="2" y="2" width="86" height="44" rx="4" fill="#9DFF1E"/>
<rect x="2" y="2" width="86" height="44" rx="4" stroke="black" stroke-width="4"/>
<path d="M35.2807 32H29.7847L27.2167 27.704H27.0247H24.4567V32H19.6327V15.68H27.0247C31.4407 15.68 34.1527 17.864 34.1527 21.608C34.1527 23.576 33.3127 25.256 31.7767 26.36L35.2807 32ZM24.4567 19.784V23.432H26.9767C28.2967 23.432 29.2807 22.688 29.2807 21.56C29.2807 20.48 28.2967 19.784 26.9767 19.784H24.4567ZM53.4095 15.68H58.5455L53.2175 32.096H48.7535L45.8255 22.712L42.8975 32.096H38.4335L33.1055 15.68H38.2415L40.7855 24.608L43.8575 15.68H47.7935L50.8415 24.632L53.4095 15.68ZM71.3032 19.808H63.5992V22.52H70.1512V26.576H63.5992V32H58.7752V15.68H71.3032V19.808Z" fill="black"/>
</svg>
